<?xml version="1.0" standalone="no"?>
<!DOCTYPE svg PUBLIC "-//W3C//DTD SVG 1.1//EN" "http://www.w3.org/Graphics/SVG/1.1/DTD/svg11.dtd" >
<svg xmlns="http://www.w3.org/2000/svg">
<metadata>
Created by FontPrep 20130207 at Sun Jun  9 21:15:49 2013
 By Sallar Kaboli
(c) 2000 Borna Rayaneh
</metadata>
<defs>
<font id="5dba3fa6a49ec6277d24f658ee6cf6f3" >
  <font-face 
    font-family="BMitraBold"
    font-weight="700"
    font-stretch="normal"
    units-per-em="2048"
    panose-1="0 0 7 0 0 0 0 0 0 0"
    ascent="1638"
    descent="-410"
    bbox="-196 -1043 2414 2015"
    underline-thickness="100"
    underline-position="-650"
    unicode-range="U+0020-FEFC"
  />
<missing-glyph horiz-adv-x="1024" 
d="M256 128h512v1132h-512v-1132zM128 0v1388h768v-1388h-768z" />
    <glyph glyph-name="uE818" unicode="&#x651;&#x64b;" 
d="M394 1657l-312 -125v80l312 127v-82zM394 1822l-312 -125v79l312 128v-82zM399 1473q0 -128 -78 -128q-49 0 -62 58q-21 -101 -91 -101q-56 0 -72 62q-7 27 -5 108q9 3 48 20q5 -112 34 -112q36 0 46 56q2 38 5 76l50 14q6 -101 40 -101q27 0 31 45q-1 11 -2 85l47 15
q9 -57 9 -97z" />
    <glyph glyph-name="uFC5E" unicode="&#x651;&#x64c;" arabic-form="isolated" 
d="M415 1483q0 -128 -78 -128q-49 0 -62 58q-21 -101 -91 -101q-56 0 -72 62q-7 27 -5 108q9 3 48 20q5 -112 34 -112q36 0 46 56q2 38 5 76l50 14q6 -101 40 -101q27 0 31 45q-1 11 -2 85l47 15q9 -57 9 -97zM329 1912q1 42 -33 43q-34 0 -56 -65q17 -16 75 -55
q14 35 14 77zM414 1773q0 -18 -8 -41q-21 7 -63 20q-38 -141 -170 -193q-1 9 1 67t-11 80q-20 -13 -65 -40l-6 88q34 18 85 44q29 -34 29 -132q49 15 93 103q-113 60 -113 85q0 52 39 106t89 55q63 0 63 -98q0 -41 -12 -98q8 -2 47 -17q2 -11 2 -29z" />
    <glyph glyph-name="uFC5F" unicode="&#x651;&#x64d;" arabic-form="isolated" 
d="M411 1870q0 -128 -78 -128q-49 0 -62 58q-21 -101 -91 -101q-56 0 -72 62q-7 27 -5 108q9 3 48 20q5 -112 34 -112q36 0 46 56q2 38 5 76l50 14q6 -101 40 -101q27 0 31 45q-1 11 -2 85l47 15q9 -57 9 -97zM416 1417l-313 -125v79l313 128v-82zM416 1582l-313 -125v79
l313 128v-82z" />
    <glyph glyph-name="uFC60" unicode="&#x651;&#x64e;" arabic-form="isolated" 
d="M421 1467q0 -128 -78 -128q-49 0 -62 58q-21 -101 -91 -101q-56 0 -72 62q-7 27 -5 108q9 3 48 20q5 -112 34 -112q36 0 46 56q2 38 5 76l50 14q6 -101 40 -101q27 0 31 45q-1 11 -2 85l47 15q9 -57 9 -97zM418 1663l-312 -125v79l312 128v-82z" />
    <glyph glyph-name="uFC61" unicode="&#x651;&#x64f;" arabic-form="isolated" 
d="M430 1478q0 -128 -78 -128q-49 0 -62 58q-21 -101 -91 -101q-56 0 -72 62q-7 27 -5 108q9 3 48 20q5 -112 34 -112q36 0 46 56q2 38 5 76l50 14q6 -101 40 -101q27 0 31 45q-1 11 -2 85l47 15q9 -57 9 -97zM358 1854q0 24 -13 42q-13 19 -31 19q-37 0 -66 -71
q43 -35 95 -55q15 41 15 65zM194 1803q0 49 48 113t108 65q60 0 60 -101q0 -41 -23 -102q31 -13 47 -16v-74q-28 10 -75 25q-49 -59 -97 -97q-48 -37 -138 -66v82q120 30 179 100q-109 58 -109 71z" />
    <glyph glyph-name="uFC62" unicode="&#x651;&#x650;" arabic-form="isolated" 
d="M402 1691q0 -128 -78 -128q-49 0 -62 58q-21 -101 -91 -101q-56 0 -72 62q-7 27 -5 108q9 3 48 20q5 -112 34 -112q36 0 46 56q2 38 5 76l50 14q6 -101 40 -101q27 0 31 45q-1 11 -2 85l47 15q9 -57 9 -97zM414 1378l-313 -125v79l313 128v-82z" />
    <glyph glyph-name="uFDF2" unicode="&#xfedf;&#xfee0;&#xfeea;" horiz-adv-x="1682" arabic-form="isolated" 
d="M549 337q61 0 90 3v200q-210 -21 -329 -134q26 -24 102 -46t137 -23zM897 243q53 1 126 35t73 82q2 324 -20 432l184 104v-410q0 -100 16 -142q27 -70 112 -70q46 0 102 26t54 68q-12 162 -62 612l166 170q32 -349 32 -764q0 -128 -72 -244q-86 -140 -230 -140t-210 174
q-121 -204 -302 -204q-200 0 -232 308q-87 -150 -120 -156q-281 0 -362 161q6 34 36 108t50 103q36 38 158 84t232 72v111l134 93q17 -59 17 -140l-12 -251q0 -99 18 -146q29 -76 112 -76zM1306 978q-45 0 -72 50q-46 -92 -110 -92q-86 0 -86 174h68q0 -84 34 -84
q56 0 56 96h66q0 -66 42 -66t41 123h62q8 -201 -101 -201zM1255 1220q0 -12 -20.5 -42.5t-31.5 -30.5q-15 112 -49 193l79 65q22 -84 22 -185z" />
    <glyph glyph-name="uFEF5" unicode="&#xfedf;&#xfe82;" horiz-adv-x="1130" arabic-form="isolated" 
d="M388 1522q0 -24 -62 -47t-93 -25q-32 -2 -97 -5q-10 -17 -18 -45t-16 -28q-41 0 -41 13q0 47 14 99t35 53l82 -13q90 0 194 53q2 -11 2 -55zM622 201q78 0 126 39q2 38 -42 93q-79 -46 -198 -120q36 -12 114 -12zM1128 1044q0 -13 -68 -13q-28 -250 -78 -378t-172 -243
l64 -122q3 -50 3 -128t-19 -154q-174 -42 -296 -42t-218 6q34 175 32 296q247 112 276 158q-77 112 -195 238t-209 184l-42 -62q-54 101 -116 191l106 337q149 -174 257 -338t301 -470q106 122 106 377q0 158 -48 317l193 125q13 8 18 9q3 -3 24 -72q21 -68 51 -140t30 -76z
" />
    <glyph glyph-name="uFEF6" unicode="&#xfee0;&#xfe82;" horiz-adv-x="1250" arabic-form="final" 
d="M388 1522q0 -24 -62 -47t-93 -25q-32 -2 -97 -5q-10 -17 -18 -45t-16 -28q-41 0 -41 13q0 47 14 99t35 53l82 -13q90 0 194 53q2 -11 2 -55zM1281 1h-62q-132 0 -197 107q-55 90 -52 229l9 452q-168 -570 -372 -825q-134 -49 -296 -49q-79 0 -131 9q-52 10 -53 16
q0 6 29 20q200 98 406 325q-52 186 -122 300t-178 231v-76l-173 157l44 372q215 -163 334 -351t190 -516q252 374 252 693q0 56 -7 111q84 49 221 149q0 -417 -10 -631t-10 -248q0 -138 41 -178q24 -23 95 -23h42v-274z" />
    <glyph glyph-name="uFEF7" unicode="&#xfedf;&#xfe84;" horiz-adv-x="1129" arabic-form="isolated" 
d="M72 1594q0 48 62 104t114 56t105 -54l-59 -58q-38 34 -64 34t-57 -17q-32 -17 -32 -37t37 -47t61 -27q55 15 138 34q1 -10 -11 -46.5t-18 -37.5q-22 -4 -98 -20t-199 -92q2 33 5 66q21 17 96 55q-80 39 -80 87zM622 201q78 0 126 39q2 38 -42 93q-79 -46 -198 -120
q36 -12 114 -12zM1128 1044q0 -13 -68 -13q-28 -250 -78 -378t-172 -243l64 -122q3 -50 3 -128t-19 -154q-174 -42 -296 -42t-218 6q34 175 32 296q247 112 276 158q-77 112 -195 238t-209 184l-42 -62q-54 101 -116 191l106 337q149 -174 257 -338t301 -470
q106 122 106 377q0 158 -48 317l193 125q13 8 18 9q3 -3 24 -72q21 -68 51 -140t30 -76z" />
    <glyph glyph-name="uFEF8" unicode="&#xfee0;&#xfe84;" horiz-adv-x="1252" arabic-form="final" 
d="M62 1544q0 48 61.5 104t113.5 56t106 -54l-59 -58q-38 34 -64 34t-57 -17q-32 -17 -32 -37t37 -47t61 -27l138 34q1 -10 -11 -46.5t-18 -37.5q-23 -4 -99 -20t-198 -92q1 33 5 66q21 17 96 55q-80 39 -80 87zM1281 1h-62q-132 0 -197 107q-55 90 -52 229l9 452
q-168 -570 -372 -825q-134 -49 -296 -49q-79 0 -131 9q-52 10 -53 16q0 6 29 20q200 98 406 325q-52 186 -122 300t-178 231v-76l-173 157l44 372q215 -163 334 -351t190 -516q252 374 252 693q0 56 -7 111q84 49 221 149q0 -417 -10 -631t-10 -248q0 -138 41 -178
q24 -23 95 -23h42v-274z" />
    <glyph glyph-name="uFEF9" unicode="&#xfedf;&#xfe88;" horiz-adv-x="1129" arabic-form="isolated" 
d="M262 -310q0 48 61.5 104t112.5 56t107 -54l-59 -58q-38 34 -64 34t-57 -17q-32 -17 -32 -37t37 -47t61 -27q58 22 138 34q1 -10 -11 -46.5t-18 -37.5q-35 -7 -82 -15q-103 -28 -215 -97q2 33 5 66q24 19 96 55q-80 39 -80 87zM622 201q78 0 126 39q2 38 -42 93
q-79 -46 -198 -120q36 -12 114 -12zM1128 1044q0 -13 -68 -13q-28 -250 -78 -378t-172 -243l64 -122q3 -50 3 -128t-19 -154q-174 -42 -296 -42t-218 6q34 175 32 296q247 112 276 158q-77 112 -195 238t-209 184l-42 -62q-54 101 -116 191l106 337q149 -174 257 -338
t301 -470q106 122 106 377q0 158 -48 317l193 125q13 8 18 9q3 -3 24 -72q21 -68 51 -140t30 -76z" />
    <glyph glyph-name="uFEFA" unicode="&#xfee0;&#xfe88;" horiz-adv-x="1252" arabic-form="final" 
d="M262 -310q0 48 61.5 104t112.5 56t107 -54l-59 -58q-38 34 -64 34t-57 -17q-32 -17 -32 -37t37 -47t61 -27q58 22 138 34q1 -10 -11 -46.5t-18 -37.5q-35 -7 -82 -15q-103 -28 -215 -97q2 33 5 66q24 19 96 55q-80 39 -80 87zM1281 1h-62q-132 0 -197 107q-55 90 -52 229
l9 452q-168 -570 -372 -825q-134 -49 -296 -49q-79 0 -131 9q-52 10 -53 16q0 6 29 20q200 98 406 325q-52 186 -122 300t-178 231v-76l-173 157l44 372q215 -163 334 -351t190 -516q252 374 252 693q0 56 -7 111q84 49 221 149q0 -417 -10 -631t-10 -248q0 -138 41 -178
q24 -23 95 -23h42v-274z" />
    <glyph glyph-name="uFEFB" unicode="&#xfedf;&#xfe8e;" horiz-adv-x="1129" arabic-form="isolated" 
d="M622 201q78 0 126 39q2 38 -42 93q-79 -46 -198 -120q36 -12 114 -12zM1128 1044q0 -13 -68 -13q-28 -250 -78 -378t-172 -243l64 -122q3 -50 3 -128t-19 -154q-174 -42 -296 -42t-218 6q34 175 32 296q247 112 276 158q-77 112 -195 238t-209 184l-42 -62
q-54 101 -116 191l106 337q149 -174 257 -338t301 -470q106 122 106 377q0 158 -48 317l193 125q13 8 18 9q3 -3 24 -72q21 -68 51 -140t30 -76z" />
    <glyph glyph-name="uFEFC" unicode="&#xfee0;&#xfe8e;" horiz-adv-x="1252" arabic-form="final" 
d="M1281 1h-62q-132 0 -197 107q-55 90 -52 229l9 452q-168 -570 -372 -825q-134 -49 -296 -49q-79 0 -131 9q-52 10 -53 16q0 6 29 20q200 98 406 325q-52 186 -122 300t-178 231v-76l-173 157l44 372q215 -163 334 -351t190 -516q252 374 252 693q0 56 -7 111
q84 49 221 149q0 -417 -10 -631t-10 -248q0 -138 41 -178q24 -23 95 -23h42v-274z" />
    <glyph glyph-name="u0622" unicode="&#x622;" horiz-adv-x="472" arabic-form="isolated" 
d="M454 961q0 -394 -72 -863l-101 -152l-1 376q0 524 -89 800l237 206q26 -128 26 -367zM482 1474q0 -26 -66 -50t-114 -28t-91 -5q-11 -14 -19 -46t-18 -32q-44 0 -44 14q0 43 14 103t39 60l88 -14q95 0 208 57q3 -12 3 -59z" />
    <glyph glyph-name="u0623" unicode="&#x623;" horiz-adv-x="476" arabic-form="isolated" 
d="M464 961q0 -394 -72 -863l-101 -152l-1 376q0 524 -89 800l237 206q26 -128 26 -367zM154 1512q0 50 66 111t120 61t116 -58l-64 -62q-40 36 -68 36t-62 -18t-34 -40t40 -51t65 -29q49 15 148 37q2 -11 -10.5 -50t-20.5 -40q-47 -6 -89 -16q-98 -23 -230 -104q2 35 5 70
q25 21 104 59q-86 44 -86 94z" />
    <glyph glyph-name="u0624" unicode="&#x624;" horiz-adv-x="765" arabic-form="isolated" 
d="M426 410q-28 0 -58 -46t-38 -80q11 -34 70 -50t115 -16t97 21q-28 61 -80 116t-106 55zM762 137q0 -354 -303 -711q-84 0 -199 37t-188 86q210 87 349 195t233 285q-84 -31 -174 -31q-166 0 -279 97q0 225 97 381q65 104 149 150q119 0 207 -109q108 -133 108 -380z
M270 980q0 51 66 111.5t120 60.5t116 -58l-64 -62q-40 36 -68 36t-62 -18t-34 -40t40 -51t54 -29t64 16q50 15 95 21q1 -11 -11.5 -50t-19.5 -40q-46 -7 -116 -23t-203 -97q0 34 5 70q30 24 104 59q-86 43 -86 94z" />
    <glyph glyph-name="u0625" unicode="&#x625;" horiz-adv-x="472" arabic-form="isolated" 
d="M164 -318q0 50 66 111t121 61t115 -58l-64 -62q-39 36 -67 36q-29 0 -63 -18t-34 -40t40 -51t65 -29q49 15 148 37q2 -11 -10.5 -50t-20.5 -40q-46 -9 -89 -16q-109 -30 -230 -104q0 35 5 70q25 20 104 59q-86 44 -86 94zM454 961q0 -394 -72 -863l-101 -152l-1 376
q0 524 -89 800l237 206q26 -128 26 -367z" />
    <glyph glyph-name="u0626" unicode="&#x626;" horiz-adv-x="1460" arabic-form="isolated" 
d="M230 620q0 48 62 104t112 56t107 -54l-59 -58q-38 34 -64 34t-57 -17q-32 -17 -32 -37t37 -47t61 -27q56 15 138 34q2 -10 -9.5 -46.5t-19.5 -37.5q-54 -10 -82 -15q-102 -28 -215 -97q2 33 5 66q26 21 96 55q-80 39 -80 87zM1236 519q-168 0 -270 -243q5 -36 113 -67
l196 -56q105 -41 105 -101q0 -141 -85 -370q-366 -218 -751 -218q-178 0 -284 85t-107 259q-1 112 49 256t110 245q51 4 75 -36q-80 -149 -80 -295q0 -242 317 -242q132 0 334 48t302 111q-84 59 -240 93t-200 101q0 54 41 200q143 510 447 510q74 0 156 -34l-121 -267
q-57 21 -107 21z" />
    <glyph glyph-name="u0627" unicode="&#x627;" horiz-adv-x="414" arabic-form="isolated" 
d="M414 961q0 -394 -72 -863l-101 -152l-1 376q0 524 -89 800l237 206q26 -128 26 -367z" />
    <glyph glyph-name="u0628" unicode="&#x628;" horiz-adv-x="1593" arabic-form="isolated" 
d="M1001 -320l-161 -152l-158 158l164 150zM1592 473q0 -48 -57 -170t-97 -154t-293 -90t-487 -58q-314 0 -432 123q-75 78 -75 231q0 208 119 392q5 1 11 1q44 0 61 -34q-61 -144 -61 -220q0 -221 476 -221q432 0 677 103q-42 109 -110 200l152 206q46 -57 81 -159t35 -150
z" />
    <glyph glyph-name="u0629" unicode="&#x629;" horiz-adv-x="762" arabic-form="isolated" 
d="M479 234q120 0 175 66q0 82 -87 152t-175 89q-84 -139 -107 -232q74 -75 194 -75zM753 394q0 -158 -61 -312q-96 -82 -262 -82t-279 117q0 247 143 449l-58 24l82 247q181 -49 271 -114q164 -118 164 -329zM162 1179q0 50 66 110.5t121 60.5t115 -58l-64 -62
q-39 36 -67 36q-29 0 -63 -18t-34 -40t40 -51t65 -29q49 15 148 37q1 -11 -11.5 -50t-19.5 -40q-46 -7 -116 -23t-203 -97q0 35 5 70q31 25 104 59q-86 45 -86 95z" />
    <glyph glyph-name="u062A" unicode="&#x62a;" horiz-adv-x="1593" arabic-form="isolated" 
d="M852 888l-148 -140l-145 147l151 135zM1218 907l-148 -139l-145 146l152 136zM1592 473q0 -48 -57 -170t-97 -154t-293 -90t-487 -58q-314 0 -432 123q-75 78 -75 231q0 208 119 392q5 1 11 1q44 0 61 -34q-61 -144 -61 -220q0 -221 476 -221q432 0 677 103
q-42 109 -110 200l152 206q46 -57 81 -159t35 -150z" />
    <glyph glyph-name="u062B" unicode="&#x62b;" horiz-adv-x="1593" arabic-form="isolated" 
d="M741 1113l127 120l126 -125l-132 -118zM877 884l129 121l124 -127l-130 -117zM596 886l127 120l126 -127l-132 -117zM1592 473q0 -48 -57 -170t-97 -154t-293 -90t-487 -58q-314 0 -432 123q-75 78 -75 231q0 208 119 392q5 1 11 1q44 0 61 -34q-61 -144 -61 -220
q0 -221 476 -221q432 0 677 103q-42 109 -110 200l152 206q46 -57 81 -159t35 -150z" />
    <glyph glyph-name="u062C" unicode="&#x62c;" horiz-adv-x="1275" arabic-form="isolated" 
d="M953 0l-161 -152l-158 158l164 150zM677 -578q-217 0 -360 97q-165 112 -165 320t191 407q151 157 325 230q-261 58 -288 58q-54 0 -119 -156q-48 0 -73 29q88 217 109 260q64 131 115 131q74 0 266 -58t296 -58h280l-148 -233q-34 2 -67 2q-347 0 -527 -195
q-127 -138 -127 -281q0 -364 652 -364q94 0 310 13l-94 -126q-83 -28 -273 -52t-303 -24z" />
    <glyph glyph-name="u062D" unicode="&#x62d;" horiz-adv-x="1275" arabic-form="isolated" 
d="M677 -578q-217 0 -360 97q-165 112 -165 320t191 407q151 157 325 230q-261 58 -288 58q-54 0 -119 -156q-48 0 -73 29q88 217 109 260q64 131 115 131q74 0 266 -58t296 -58h280l-148 -233q-34 2 -67 2q-347 0 -527 -195q-127 -138 -127 -281q0 -364 652 -364
q94 0 310 13l-94 -126q-83 -28 -273 -52t-303 -24z" />
    <glyph glyph-name="u062E" unicode="&#x62e;" horiz-adv-x="1275" arabic-form="isolated" 
d="M943 1092l-161 -152l-158 158l164 150zM677 -578q-217 0 -360 97q-165 112 -165 320t191 407q151 157 325 230q-261 58 -288 58q-54 0 -119 -156q-48 0 -73 29q88 217 109 260q64 131 115 131q74 0 266 -58t296 -58h280l-148 -233q-34 2 -67 2q-347 0 -527 -195
q-127 -138 -127 -281q0 -364 652 -364q94 0 310 13l-94 -126q-83 -28 -273 -52t-303 -24z" />
    <glyph glyph-name="u062F" unicode="&#x62f;" horiz-adv-x="800" arabic-form="isolated" 
d="M797 436q0 -210 -59 -343q-42 -52 -170 -82t-234 -30q-107 0 -183 52q0 136 44 313h40q16 -45 31 -61q39 -43 119 -43q183 0 289 70q-62 252 -399 317l49 311q182 -55 328 -195t145 -309z" />
    <glyph glyph-name="u0630" unicode="&#x630;" horiz-adv-x="800" arabic-form="isolated" 
d="M517 1218l-161 -152l-158 158l164 150zM797 436q0 -210 -59 -343q-42 -52 -170 -82t-234 -30q-107 0 -183 52q0 136 44 313h40q16 -45 31 -61q39 -43 119 -43q183 0 289 70q-62 252 -399 317l49 311q182 -55 328 -195t145 -309z" />
    <glyph glyph-name="u0631" unicode="&#x631;" horiz-adv-x="741" arabic-form="isolated" 
d="M738 34q0 -110 -103 -313q-103 -204 -209 -310q-69 0 -185 48t-166 97q181 82 335 202t186 224q-45 125 -185 219l138 267q74 -64 131.5 -194t57.5 -240z" />
    <glyph glyph-name="u0632" unicode="&#x632;" horiz-adv-x="741" arabic-form="isolated" 
d="M689 786l-161 -152l-158 158l164 150zM738 34q0 -110 -103 -313q-103 -204 -209 -310q-69 0 -185 48t-166 97q181 82 335 202t186 224q-45 125 -185 219l138 267q74 -64 131.5 -194t57.5 -240z" />
    <glyph glyph-name="u0633" unicode="&#x633;" horiz-adv-x="2180" arabic-form="isolated" 
d="M2178 474q0 -52 -34 -155q-34 -101 -60 -157q-28 -56 -98 -108t-138 -51q-162 0 -210 198q-79 -199 -223 -199q-63 0 -137 39q2 -21 2 -63t-14 -144t-35 -138q-87 -102 -257 -184t-382 -82q-259 0 -370 138q-71 89 -71 218q0 186 213 494q6 2 12 2q48 0 60 -40
q-112 -180 -112 -304t101 -187q83 -51 237 -51t307 60q154 60 201 128q-44 230 -184 367l106 263q108 -153 137 -181q67 -65 161 -65q122 0 176 105q35 68 35 157h90q0 -260 158 -260q118 0 191 62q0 27 -128 212l154 202q36 -40 74 -132t38 -144z" />
    <glyph glyph-name="u0634" unicode="&#x634;" horiz-adv-x="2180" arabic-form="isolated" 
d="M1698 1304l127 120l126 -125l-132 -118zM1834 1075l129 121l124 -127l-130 -117zM1553 1077l127 120l126 -127l-132 -117zM2178 474q0 -52 -34 -155q-34 -101 -60 -157q-28 -56 -98 -108t-138 -51q-162 0 -210 198q-79 -199 -223 -199q-63 0 -137 39q2 -21 2 -63
t-14 -144t-35 -138q-87 -102 -257 -184t-382 -82q-259 0 -370 138q-71 89 -71 218q0 186 213 494q6 2 12 2q48 0 60 -40q-112 -180 -112 -304t101 -187q83 -51 237 -51t307 60q154 60 201 128q-44 230 -184 367l106 263q108 -153 137 -181q67 -65 161 -65q122 0 176 105
q35 68 35 157h90q0 -260 158 -260q118 0 191 62q0 27 -128 212l154 202q36 -40 74 -132t38 -144z" />
    <glyph glyph-name="u0635" unicode="&#x635;" horiz-adv-x="2301" arabic-form="isolated" 
d="M1888 522q-80 0 -176 -82q-97 -82 -166 -176q398 0 521 111q0 65 -49.5 106t-129.5 41zM2298 452q0 -30 -90 -133q-278 -318 -748 -318q-131 0 -182 40q2 -19 2 -69t-18 -152t-31 -124q-87 -102 -257 -184t-382 -82q-259 0 -370 138q-71 89 -71 218q0 186 213 494
q6 2 12 2q48 0 60 -40q-112 -180 -112 -304t101 -187q83 -51 237 -51t307 60q154 60 201 128q-44 230 -184 367l106 263q109 -152 148 -186q70 -62 174 -62q159 192 254 275q185 161 346 161q120 0 202 -84t82 -170z" />
    <glyph glyph-name="u0636" unicode="&#x636;" horiz-adv-x="2301" arabic-form="isolated" 
d="M2029 1032l-161 -152l-158 158l164 150zM1888 522q-80 0 -176 -82q-97 -82 -166 -176q398 0 521 111q0 65 -49.5 106t-129.5 41zM2298 452q0 -30 -90 -133q-278 -318 -748 -318q-131 0 -182 40q2 -19 2 -69t-18 -152t-31 -124q-87 -102 -257 -184t-382 -82
q-259 0 -370 138q-71 89 -71 218q0 186 213 494q6 2 12 2q48 0 60 -40q-112 -180 -112 -304t101 -187q83 -51 237 -51t307 60q154 60 201 128q-44 230 -184 367l106 263q109 -152 148 -186q70 -62 174 -62q159 192 254 275q185 161 346 161q120 0 202 -84t82 -170z" />
    <glyph glyph-name="u0637" unicode="&#x637;" horiz-adv-x="1354" arabic-form="isolated" 
d="M961 524q-166 0 -356 -258q398 0 521 111q0 67 -48.5 107t-116.5 40zM1351 462q1 -42 -97 -156t-264 -196q-221 -109 -507 -109q-176 0 -228 68q-35 46 -105 306h63q36 -68 114 -90q49 -14 151 -14v193q0 478 -110 732l180 160l147 -290h-74v-636q218 280 447 280
q115 0 199 -83t84 -165z" />
    <glyph glyph-name="u0638" unicode="&#x638;" horiz-adv-x="1354" arabic-form="isolated" 
d="M1187 1044l-161 -152l-158 158l164 150zM961 524q-166 0 -356 -258q398 0 521 111q0 67 -48.5 107t-116.5 40zM1351 462q1 -42 -97 -156t-264 -196q-221 -109 -507 -109q-176 0 -228 68q-35 46 -105 306h63q36 -68 114 -90q49 -14 151 -14v193q0 478 -110 732l180 160
l147 -290h-74v-636q218 280 447 280q115 0 199 -83t84 -165z" />
    <glyph glyph-name="u0639" unicode="&#x639;" horiz-adv-x="1089" arabic-form="isolated" 
d="M649 -598q-217 0 -342 72q-156 92 -156 270t146 343q98 111 215 181q-90 67 -108 86q-78 82 -78 176t132 233q132 138 242 138q149 0 263 -176q14 -22 14 -27t-7 -5q-6 -1 -58 19t-138 20q-136 0 -234 -66q18 -191 202 -244l348 86l-86 -226q-188 -13 -343 -74
q-274 -108 -274 -324q0 -172 198 -247q135 -51 343 -51q113 0 236 16l-80 -126q-218 -74 -435 -74z" />
    <glyph glyph-name="u063A" unicode="&#x63a;" horiz-adv-x="1089" arabic-form="isolated" 
d="M841 1170l-161 -152l-158 158l164 150zM649 -598q-217 0 -342 72q-156 92 -156 270t146 343q98 111 215 181q-90 67 -108 86q-78 82 -78 176t132 233q132 138 242 138q149 0 263 -176q14 -22 14 -27t-7 -5q-6 -1 -58 19t-138 20q-136 0 -234 -66q18 -191 202 -244l348 86
l-86 -226q-188 -13 -343 -74q-274 -108 -274 -324q0 -172 198 -247q135 -51 343 -51q113 0 236 16l-80 -126q-218 -74 -435 -74z" />
    <glyph glyph-name="u0641" unicode="&#x641;" horiz-adv-x="1490" arabic-form="isolated" 
d="M1345 1234l-145 -137l-142 143l147 135zM1160 780q-32 0 -56 -40t-24 -74q0 -58 162 -58q80 0 110 20q-71 152 -192 152zM1488 541q0 -168 -34 -404q-192 -136 -755 -136q-298 0 -400 42q-148 61 -148 248t123 380q47 4 60 -33q-58 -95 -58 -183q0 -132 164 -165
q78 -16 436 -16t488 67v102q-75 -31 -169 -31q-155 0 -240 70q0 220 82 363q56 97 133 140q173 0 255 -156q63 -120 63 -288z" />
    <glyph glyph-name="u0642" unicode="&#x642;" horiz-adv-x="1310" arabic-form="isolated" 
d="M902 900l-148 -140l-145 147l151 135zM1268 919l-148 -139l-145 146l152 136zM1062 216q62 0 95 26q-52 150 -197 169q-57 -41 -78 -123q49 -72 180 -72zM1311 116q0 -80 -16 -224t-38 -194q-78 -78 -278 -171q-201 -93 -405 -93t-314 94t-109 280q-1 98 45 249t111 241
q50 -3 62 -32q-73 -153 -73 -287q0 -273 319 -273q132 0 305 56t271 136v126q-80 -22 -161 -22q-172 0 -282 98q0 158 64 308t184 222q315 -41 315 -514z" />
    <glyph glyph-name="u0643" unicode="&#x643;" horiz-adv-x="1631" arabic-form="isolated" 
d="M1355 500q0 -168 -33 -288q-90 -131 -277 -179q-125 -32 -381 -32t-361 42q-152 61 -152 248t123 380q47 4 60 -33q-58 -95 -58 -183q0 -132 143 -165q69 -16 337 -16q383 0 502 92q-80 182 -395 309q0 143 34 355q159 88 405 194t376 127l-114 -267q-324 -101 -589 -233
q268 -87 379 -289q1 -32 1 -62z" />
    <glyph glyph-name="u0644" unicode="&#x644;" horiz-adv-x="1152" arabic-form="isolated" 
d="M1075 473q0 -264 -1 -393q-6 -53 -32 -142t-52 -121q-78 -74 -196 -135q-180 -93 -358 -93q-285 0 -285 278q0 182 119 439q43 -2 70 -26q-44 -95 -44 -230q0 -196 200 -196t424 132v390q0 208 -30 442t-82 353l182 164l153 -297h-81q13 -301 13 -565z" />
    <glyph glyph-name="u0645" unicode="&#x645;" horiz-adv-x="1107" arabic-form="isolated" 
d="M659 485q-37 0 -73 -11l44 -154q159 -21 324 -90q-26 107 -108 181t-187 74zM431 102q-76 0 -137 -21q25 -185 42 -471l-147 -174q0 320 -40 598q108 189 193 262q26 11 143 34q-22 65 -22 91t1 35q65 96 188 252q370 -13 452 -330q-8 -76 -79 -202t-127 -182
q-312 108 -467 108z" />
    <glyph glyph-name="u0646" unicode="&#x646;" horiz-adv-x="1298" arabic-form="isolated" 
d="M923 654l-161 -152l-158 158l164 150zM1296 28q0 -119 -65 -332q-87 -102 -257 -184t-382 -82q-259 0 -370 138q-71 89 -71 218q0 186 213 494q6 2 12 2q48 0 60 -40q-112 -180 -112 -304t101 -187q83 -51 237 -51t307 60q154 60 201 128q-44 230 -184 367l109 273
q73 -85 137 -233t64 -267z" />
    <glyph glyph-name="u0647" unicode="&#x647;" horiz-adv-x="756" arabic-form="isolated" 
d="M479 234q120 0 175 66q0 82 -87 152t-175 89q-84 -139 -107 -232q74 -75 194 -75zM753 394q0 -158 -61 -312q-96 -82 -262 -82t-279 117q0 247 143 449l-58 24l82 247q181 -49 271 -114q164 -118 164 -329z" />
    <glyph glyph-name="u0648" unicode="&#x648;" horiz-adv-x="765" arabic-form="isolated" 
d="M426 410q-28 0 -58 -46t-38 -80q11 -34 70 -50t115 -16t97 21q-28 61 -80 116t-106 55zM762 137q0 -354 -303 -711q-84 0 -199 37t-188 86q210 87 349 195t233 285q-84 -31 -174 -31q-166 0 -279 97q0 225 97 381q65 104 149 150q119 0 207 -109q108 -133 108 -380z" />
    <glyph glyph-name="u0649" unicode="&#x649;" horiz-adv-x="1460" arabic-form="isolated" 
d="M1236 519q-168 0 -270 -243q5 -36 113 -67l196 -56q105 -41 105 -101q0 -141 -85 -370q-366 -218 -751 -218q-178 0 -284 85t-107 259q-1 112 49 256t110 245q51 4 75 -36q-80 -149 -80 -295q0 -242 317 -242q132 0 334 48t302 111q-84 59 -240 93t-200 101q0 54 41 200
q143 510 447 510q74 0 156 -34l-121 -267q-57 21 -107 21z" />
    <glyph glyph-name="u064A" unicode="&#x64a;" horiz-adv-x="1460" arabic-form="isolated" 
d="M1236 519q-168 0 -270 -243q5 -36 113 -67l196 -56q105 -41 105 -101q0 -141 -85 -370q-366 -218 -751 -218q-178 0 -284 85t-107 259q-1 112 49 256t110 245q51 4 75 -36q-80 -149 -80 -295q0 -242 317 -242q132 0 334 48t302 111q-84 59 -240 93t-200 101q0 54 41 200
q143 510 447 510q74 0 156 -34l-121 -267q-57 21 -107 21z" />
    <glyph glyph-name="u067E" unicode="&#x67e;" horiz-adv-x="1593" arabic-form="isolated" 
d="M937 -468l-127 -120l-126 125l132 118zM801 -239l-129 -121l-124 127l130 117zM1082 -241l-127 -120l-126 127l132 117zM1592 473q0 -48 -57 -170t-97 -154t-293 -90t-487 -58q-314 0 -432 123q-75 78 -75 231q0 208 119 392q5 1 11 1q44 0 61 -34q-61 -144 -61 -220
q0 -221 476 -221q432 0 677 103q-42 109 -110 200l152 206q46 -57 81 -159t35 -150z" />
    <glyph glyph-name="u0686" unicode="&#x686;" horiz-adv-x="1275" arabic-form="isolated" 
d="M937 -144l-127 -120l-126 125l132 118zM801 85l-129 -121l-124 127l130 117zM1082 83l-127 -120l-126 127l132 117zM677 -578q-217 0 -360 97q-165 112 -165 320t191 407q151 157 325 230q-261 58 -288 58q-54 0 -119 -156q-48 0 -73 29q88 217 109 260q64 131 115 131
q74 0 266 -58t296 -58h280l-148 -233q-34 2 -67 2q-347 0 -527 -195q-127 -138 -127 -281q0 -364 652 -364q94 0 310 13l-94 -126q-83 -28 -273 -52t-303 -24z" />
    <glyph glyph-name="u0698" unicode="&#x698;" horiz-adv-x="780" arabic-form="isolated" 
d="M388 938l127 120l126 -125l-132 -118zM524 709l129 121l124 -127l-130 -117zM243 711l127 120l126 -127l-132 -117zM738 34q0 -110 -103 -313q-103 -204 -209 -310q-69 0 -185 48t-166 97q181 82 335 202t186 224q-45 125 -185 219l138 267q74 -64 131.5 -194t57.5 -240z
" />
    <glyph glyph-name="u06AF" unicode="&#x6af;" horiz-adv-x="1624" arabic-form="isolated" 
d="M664 1q-256 0 -361 42q-152 61 -152 248t123 380q47 4 60 -33q-58 -95 -58 -183q0 -132 143 -165q69 -16 337 -16q383 0 502 92q-129 189 -409 256q0 132 41 366q443 157 786 192l-104 -256q-345 -21 -638 -106q153 -47 242 -98t163 -141q9 -59 2 -181t-19 -186
q-90 -131 -277 -179q-125 -32 -381 -32zM1624 1366l-50 -100q-228 -32 -566 -134l28 108q368 104 588 126z" />
    <glyph glyph-name="uFB57" unicode="&#x67e;" horiz-adv-x="1698" arabic-form="final" 
d="M937 -468l-127 -120l-126 125l132 118zM801 -239l-129 -121l-124 127l130 117zM1082 -241l-127 -120l-126 127l132 117zM1729 1h-79q-102 -1 -172 57t-72 158q-292 -215 -762 -215q-225 0 -340 63q-153 84 -153 300t120 384q50 6 71 -34q-61 -142 -61 -227
q0 -112 137 -168q110 -45 282 -45t370 34q196 34 292 110q60 46 92 139q12 8 40 1t39 -21q-23 -72 -23 -125q0 -137 158 -137h61v-274z" />
    <glyph glyph-name="uFB58" unicode="&#x67e;" horiz-adv-x="570" arabic-form="initial" 
d="M418 -453l-127 -120l-126 125l132 118zM282 -224l-129 -121l-124 127l130 117zM563 -226l-127 -120l-126 127l132 117zM34 1h-64v274h104q217 0 217 65q0 45 -113 198l154 210q114 -152 114 -318q-35 -212 -96 -288q-113 -141 -316 -141z" />
    <glyph glyph-name="uFB59" unicode="&#x67e;" horiz-adv-x="549" arabic-form="medial" 
d="M398 -453l-127 -120l-126 125l132 118zM262 -224l-129 -121l-124 127l130 117zM543 -226l-127 -120l-126 127l132 117zM580 1h-71q-81 1 -149 69t-83 151q-13 -77 -87 -149t-150 -71h-70v274h60q102 -1 154 81t52 174h85q1 -107 49 -181t150 -74h60v-274z" />
    <glyph glyph-name="uFB7B" unicode="&#x686;" horiz-adv-x="1324" arabic-form="final" 
d="M821 -193l-121 -114l-119 119l125 112zM692 24l-123 -115l-118 121l124 111zM959 22l-121 -114l-120 121l126 111zM1353 1h-93q-395 0 -456 443q-200 -51 -324 -230q-95 -137 -95 -239q0 -364 628 -364q88 0 304 13l-94 -126q-83 -28 -260 -52t-286 -24q-217 0 -360 97
q-165 112 -165 315t191 406q155 165 325 236q-261 58 -288 58q-54 0 -119 -156q-48 0 -73 29q88 217 109 260q64 131 115 131q73 0 264.5 -58.5t297.5 -57.5l313 2l-132 -234h-247q30 -88 71 -121q68 -54 221 -54h153v-274z" />
    <glyph glyph-name="uFB7C" unicode="&#x686;" horiz-adv-x="1044" arabic-form="initial" 
d="M627 -459l-127 -120l-126 125l132 118zM491 -230l-129 -121l-124 127l130 117zM772 -232l-127 -120l-126 127l132 117zM702 181q-62 0 -301.5 -90t-360.5 -90h-70v274h153q267 0 449 48q-99 53 -216 133t-147 80t-109 -137q-14 -2 -37.5 10t-30.5 25q155 336 250 336
q62 0 239 -136t228 -168q167 -103 291 -95l-134 -218q-142 28 -204 28z" />
    <glyph glyph-name="uFB7D" unicode="&#x686;" horiz-adv-x="1310" arabic-form="medial" 
d="M717 -459l-127 -120l-126 125l132 118zM581 -230l-129 -121l-124 127l130 117zM862 -232l-127 -120l-126 127l132 117zM1340 1h-79q-169 0 -269 101q-80 81 -139 260q-320 -226 -381 -260q-181 -101 -366 -101h-136v274h180q162 -1 250 27t284 126q-382 150 -428 150
t-72 -26t-67 -106q-16 -7 -36 -7t-36 27q68 177 104 244q67 126 129 126q40 0 275 -105t347 -105t362 48l-106 -242q-131 -14 -216 -32q60 -125 232 -125h168v-274z" />
    <glyph glyph-name="uFB8B" unicode="&#x698;" horiz-adv-x="916" arabic-form="final" 
d="M388 938l127 120l126 -125l-132 -118zM524 709l129 121l124 -127l-130 -117zM243 711l127 120l126 -127l-132 -117zM945 1h-59q-72 0 -139 50q-67 -369 -340 -618q-40 0 -153 43t-181 98q469 224 537 429q-41 117 -203 232l136 269q127 -143 185 -186t154 -43h63v-274z
" />
    <glyph glyph-name="uFEDA" unicode="&#x6a9;" horiz-adv-x="1869" arabic-form="final" 
d="M1899 1h-61q-111 0 -211 78q-55 43 -142 155t-139 153q6 -36 6 -81t-11 -102q-89 -128 -289 -174q-126 -29 -386 -29t-363 42q-152 61 -152 248t123 380q47 4 60 -33q-58 -95 -58 -183q0 -126 143 -161q81 -20 327 -20t350 17t172 66q-116 194 -404 325q6 203 32 341
q433 244 831 330l-120 -258q-139 -33 -339 -115t-279 -125q157 -59 360 -216q75 -59 181 -167t167 -153q61 -44 144 -44h58v-274z" />
    <glyph glyph-name="uFEDB" unicode="&#x6a9;" horiz-adv-x="777" arabic-form="initial" 
d="M505 505q0 -178 -43 -325q-159 -179 -431 -179h-81v274h86q151 0 193 6q98 14 173 73q-88 200 -389 321q9 213 34 355q157 88 405 194t376 127l-114 -267q-324 -101 -589 -233q268 -87 379 -289q1 -29 1 -57z" />
    <glyph glyph-name="uFEDC" unicode="&#x6a9;" horiz-adv-x="1014" arabic-form="medial" 
d="M1045 1h-61q-110 0 -210 78q-55 43 -142.5 155t-139.5 153q2 -11 2 -45t-22 -134q-66 -102 -185 -154t-251 -53h-66v274h96q252 0 338 82q-119 200 -394 325q6 200 32 341q436 245 831 330l-120 -258q-144 -35 -339 -115t-279 -125q156 -59 360 -216q79 -61 185 -169
t165 -152q59 -43 142 -43h58v-274z" />
    <glyph glyph-name="uFB93" unicode="&#x6af;" horiz-adv-x="1854" arabic-form="final" 
d="M1885 1h-61q-107 0 -256 150q-63 64 -227 231q8 -47 8 -92t-8 -86q-89 -128 -289 -174q-126 -29 -386 -29t-363 42q-152 61 -152 248t123 380q47 4 60 -33q-58 -95 -58 -183q0 -126 143 -161q81 -20 325 -20t343 18q100 18 172 67q-53 95 -166 163t-235 97q16 205 42 362
q471 167 825 192l-96 -240q-348 -22 -675 -117q188 -71 360 -180q60 -38 278 -227q155 -134 235 -134h58v-274zM1681 1360l-50 -100q-228 -32 -599 -137l28 108q387 105 621 129z" />
    <glyph glyph-name="uFB94" unicode="&#x6af;" horiz-adv-x="805" arabic-form="initial" 
d="M35 1h-65v274h120q236 0 328 87q-127 194 -404 260q10 198 41 366q443 157 786 192l-104 -256q-345 -21 -638 -106q153 -47 242 -98t163 -141q8 -65 0 -195t-22 -193q-74 -87 -200 -139t-247 -51zM789 1366l-50 -100q-228 -32 -566 -134l28 108q376 105 588 126z" />
    <glyph glyph-name="uFB95" unicode="&#x6af;" horiz-adv-x="1014" arabic-form="medial" 
d="M1045 1h-61q-105 0 -256 150q-57 56 -227 231q9 -48 9 -92t-9 -86q-154 -203 -465 -203h-66v274h96q144 -1 212 17t141 67q-53 95 -166 163t-235 97q12 202 42 362q473 167 825 192l-96 -240q-347 -22 -675 -117q189 -73 360 -180q53 -33 278 -228q154 -133 235 -133h58
v-274zM841 1360l-50 -100q-229 -32 -599 -137l28 108q397 107 621 129z" />
    <glyph glyph-name="uFE94" unicode="&#x6c0;" horiz-adv-x="942" arabic-form="final" 
d="M559 325q47 0 87 5l-44 222q-154 -33 -288 -154q59 -73 245 -73zM973 1h-81q-174 0 -237 290q-32 -118 -90 -198q-315 0 -417 141q41 153 72 240q122 109 350 194q-8 38 -34 108l119 178q53 -76 85 -294t41 -253q38 -132 126 -132h66v-274zM222 1172q0 52 66 112t120 60
t116 -58l-64 -62q-41 36 -68 36q-28 0 -62 -18t-34 -40t40 -51t65 -29l148 37q2 -12 -10.5 -51t-20.5 -39q-25 -3 -106 -21t-213 -99q2 35 5 70q25 21 104 59q-86 42 -86 94z" />
    <glyph glyph-name="uFEF2" unicode="&#x6cc;" horiz-adv-x="1375" arabic-form="final" 
d="M1406 275v-274h-59q-44 0 -130 25.5t-131 25.5q-78 0 -108 -56q32 -24 126 -53q188 -58 188 -108t-31 -143t-62 -140q-411 -129 -676 -129q-111 0 -216 52q-156 77 -156 234q0 228 180 490q42 0 64 -32q-29 -52 -55 -136t-26 -140q0 -202 333 -202q278 0 527 39
q-53 40 -174 78t-140 80q37 175 82 260q77 146 208 146l192 -17h64z" />
    <glyph glyph-name="uFEF3" unicode="&#x6cc;" horiz-adv-x="585" arabic-form="initial" 
d="M585 -268l-138 -138l-140 123l-128 -129l-147 129l138 141l140 -125l128 131zM34 1h-64v274h104q217 0 217 65q0 45 -113 198l154 210q114 -152 114 -318q-35 -212 -96 -288q-113 -141 -316 -141z" />
    <glyph glyph-name="uFEF4" unicode="&#x6cc;" horiz-adv-x="549" arabic-form="medial" 
d="M580 1h-71q-81 1 -149 69t-83 151q-13 -77 -87 -149t-150 -71h-70v274h60q102 -1 154 81t52 174h85q1 -107 49 -181t150 -74h60v-274zM545 -268l-138 -138l-140 123l-128 -129l-147 129l138 141l140 -125l128 131z" />
    <glyph glyph-name="Hcircumflex" unicode="&#x622;" horiz-adv-x="606" arabic-form="final" 
d="M634 1h-61q-191 0 -249 158q-38 107 -48 383t-23 382q-13 104 -60 211l183 192q46 -73 57 -225q4 -55 4 -233v-295q0 -132 19 -192q34 -107 136 -107h42v-274zM482 1474q0 -26 -66 -50t-114 -28t-91 -5q-11 -14 -19 -46t-18 -32q-44 0 -44 14q0 43 14 103t39 60l88 -14
q95 0 208 57q3 -12 3 -59z" />
    <glyph glyph-name="uFE84" unicode="&#x623;" horiz-adv-x="626" arabic-form="final" 
d="M654 1h-61q-191 0 -249 158q-38 108 -48 385q-10 278 -23 380t-60 211l183 192q47 -75 58 -225q3 -41 3 -233v-295q0 -132 19 -192q34 -107 136 -107h42v-274zM154 1512q0 50 66 111t120 61t116 -58l-64 -62q-40 36 -68 36t-62 -18t-34 -40t40 -51t65 -29q49 15 148 37
q2 -11 -10.5 -50t-20.5 -40q-47 -6 -89 -16q-98 -23 -230 -104q2 35 5 70q25 21 104 59q-86 44 -86 94z" />
    <glyph glyph-name="uFE86" unicode="&#x624;" horiz-adv-x="850" arabic-form="final" 
d="M270 980q0 51 66 111.5t120 60.5t116 -58l-64 -62q-40 36 -68 36t-62 -18t-34 -40t40 -51t54 -29t64 16q50 15 95 21q1 -11 -11.5 -50t-19.5 -40q-46 -7 -116 -23t-203 -97q0 34 5 70q30 24 104 59q-86 43 -86 94zM426 410q-28 0 -58 -46t-38 -80q11 -34 70 -50t115 -16
t97 21q-28 61 -80 116t-106 55zM881 1h-129q-42 -281 -293 -575q-84 0 -199 37t-188 86q238 97 358 197t202 255q-330 0 -431 94q0 225 97 381q65 104 149 150q99 0 189 -87t116 -264h129v-274z" />
    <glyph glyph-name="uFE88" unicode="&#x625;" horiz-adv-x="614" arabic-form="final" 
d="M274 -248q0 51 66 111.5t121 60.5t115 -58l-64 -62q-39 36 -67 36q-29 0 -63 -18t-34 -40t40 -51t65 -29l148 37q2 -11 -10.5 -50t-20.5 -40q-46 -9 -89 -16q-109 -30 -230 -104q2 35 5 70q28 23 104 59q-86 43 -86 94zM644 1h-61q-191 0 -249 158q-38 108 -48 385
q-10 278 -23 380t-60 211l183 192q46 -73 57 -225q4 -55 4 -233v-295q0 -132 19 -192q34 -107 136 -107h42v-274z" />
    <glyph glyph-name="uFE8A" unicode="&#x626;" horiz-adv-x="1375" arabic-form="final" 
d="M230 490q0 48 62 104t113 56t106 -54l-59 -58q-38 34 -64 34t-57 -17q-32 -17 -32 -37q-1 -20 37 -47t61 -27q45 14 138 34q2 -10 -9.5 -46.5t-19.5 -37.5q-23 -4 -98 -20t-199 -92q2 33 5 66q23 19 96 55q-80 39 -80 87zM1406 275v-274h-59q-44 0 -130 25.5t-131 25.5
q-78 0 -108 -56q32 -24 126 -53q188 -58 188 -108t-31 -143t-62 -140q-411 -129 -676 -129q-111 0 -216 52q-156 77 -156 234q0 228 180 490q42 0 64 -32q-29 -52 -55 -136t-26 -140q0 -202 333 -202q278 0 527 39q-53 40 -174 78t-140 80q37 175 82 260q77 146 208 146
l192 -17h64z" />
    <glyph glyph-name="uFE8B" unicode="&#x626;" horiz-adv-x="498" arabic-form="initial" 
d="M144 1136q0 50 66 111t120 61t116 -58l-64 -62q-38 36 -66 36t-64 -18q-34 -18 -34 -40t40 -51t54 -29t64 16q50 15 95 21q1 -11 -11.5 -50t-19.5 -40q-46 -9 -89 -16q-110 -30 -230 -104q2 35 5 70q25 21 104 59q-86 44 -86 94zM34 1h-64v274h104q217 0 217 65
q0 45 -113 198l154 210q114 -152 114 -318q-35 -212 -96 -288q-113 -141 -316 -141z" />
    <glyph glyph-name="uFE8C" unicode="&#x626;" horiz-adv-x="549" arabic-form="medial" 
d="M580 1h-71q-81 1 -149 69t-83 151q-13 -77 -87 -149t-150 -71h-70v274h60q102 -1 154 81t52 174h85q1 -107 49 -181t150 -74h60v-274zM66 980q0 51 66 111.5t120 60.5t116 -58l-64 -62q-40 36 -68 36t-62 -18t-34 -40t40 -51t54 -29t64 16q50 15 95 21q1 -11 -11.5 -50
t-19.5 -40q-46 -9 -89 -16q-109 -30 -230 -104q0 34 5 70q30 24 104 59q-86 43 -86 94z" />
    <glyph glyph-name="uFE8E" unicode="&#x627;" horiz-adv-x="564" arabic-form="final" 
d="M594 1h-61q-191 0 -249 158q-38 107 -48 383t-23 382q-13 104 -60 211l183 192q46 -73 57 -225q4 -55 4 -233v-295q0 -132 19 -192q34 -107 136 -107h42v-274z" />
    <glyph glyph-name="uFE90" unicode="&#x628;" horiz-adv-x="1698" arabic-form="final" 
d="M1001 -320l-161 -152l-158 158l164 150zM1729 1h-79q-102 -1 -172 57t-72 158q-292 -215 -762 -215q-225 0 -340 63q-153 84 -153 300t120 384q50 6 71 -34q-61 -142 -61 -227q0 -112 137 -168q110 -45 282 -45t370 34q196 34 292 110q60 46 92 139q12 8 40 1t39 -21
q-23 -72 -23 -125q0 -137 158 -137h61v-274z" />
    <glyph glyph-name="uFE91" unicode="&#x628;" horiz-adv-x="450" arabic-form="initial" 
d="M437 -320l-161 -152l-158 158l164 150zM34 1h-64v274h104q217 0 217 65q0 45 -113 198l154 210q114 -152 114 -318q-35 -212 -96 -288q-113 -141 -316 -141z" />
    <glyph glyph-name="uFE92" unicode="&#x628;" horiz-adv-x="549" arabic-form="medial" 
d="M401 -320l-161 -152l-158 158l164 150zM580 1h-71q-81 1 -149 69t-83 151q-13 -77 -87 -149t-150 -71h-70v274h60q102 -1 154 81t52 174h85q1 -107 49 -181t150 -74h60v-274z" />
    <glyph glyph-name="uFE96" unicode="&#x62a;" horiz-adv-x="1698" arabic-form="final" 
d="M852 888l-148 -140l-145 147l151 135zM1218 907l-148 -139l-145 146l152 136zM1729 1h-79q-102 -1 -172 57t-72 158q-292 -215 -762 -215q-225 0 -340 63q-153 84 -153 300t120 384q50 6 71 -34q-61 -142 -61 -227q0 -112 137 -168q110 -45 282 -45t370 34
q196 34 292 110q60 46 92 139q12 8 40 1t39 -21q-23 -72 -23 -125q0 -137 158 -137h61v-274z" />
    <glyph glyph-name="uFE97" unicode="&#x62a;" horiz-adv-x="592" arabic-form="initial" 
d="M588 1036l-138 -138l-140 123l-128 -129l-147 129l138 141l140 -125l128 131zM34 1h-64v274h104q217 0 217 65q0 45 -113 198l154 210q114 -152 114 -318q-35 -212 -96 -288q-113 -141 -316 -141z" />
    <glyph glyph-name="uFE98" unicode="&#x62a;" horiz-adv-x="550" arabic-form="medial" 
d="M580 1h-71q-81 1 -149 69t-83 151q-13 -77 -87 -149t-150 -71h-70v274h60q102 -1 154 81t52 174h85q1 -107 49 -181t150 -74h60v-274zM540 924l-138 -138l-140 123l-128 -129l-147 129l138 141l140 -125l128 131z" />
    <glyph glyph-name="uFE9A" unicode="&#x62b;" horiz-adv-x="1698" arabic-form="final" 
d="M741 1113l127 120l126 -125l-132 -118zM877 884l129 121l124 -127l-130 -117zM596 886l127 120l126 -127l-132 -117zM1729 1h-79q-102 -1 -172 57t-72 158q-292 -215 -762 -215q-225 0 -340 63q-153 84 -153 300t120 384q50 6 71 -34q-61 -142 -61 -227q0 -112 137 -168
q110 -45 282 -45t370 34q196 34 292 110q60 46 92 139q12 8 40 1t39 -21q-23 -72 -23 -125q0 -137 158 -137h61v-274z" />
    <glyph glyph-name="uFE9B" unicode="&#x62b;" horiz-adv-x="576" arabic-form="initial" 
d="M189 1197l127 120l126 -125l-132 -118zM325 968l129 121l124 -127l-130 -117zM44 970l127 120l126 -127l-132 -117zM34 1h-64v274h104q217 0 217 65q0 45 -113 198l154 210q114 -152 114 -318q-35 -212 -96 -288q-113 -141 -316 -141z" />
    <glyph glyph-name="uFE9C" unicode="&#x62b;" horiz-adv-x="552" arabic-form="medial" 
d="M580 1h-71q-81 1 -149 69t-83 151q-13 -77 -87 -149t-150 -71h-70v274h60q102 -1 154 81t52 174h85q1 -107 49 -181t150 -74h60v-274zM153 1143l127 120l126 -125l-132 -118zM289 914l129 121l124 -127l-130 -117zM8 916l127 120l126 -127l-132 -117z" />
    <glyph glyph-name="uFE9E" unicode="&#x62c;" horiz-adv-x="1324" arabic-form="final" 
d="M869 -48l-161 -152l-158 158l164 150zM1353 1h-93q-395 0 -456 443q-200 -51 -324 -230q-95 -137 -95 -239q0 -364 628 -364q88 0 304 13l-94 -126q-83 -28 -260 -52t-286 -24q-217 0 -360 97q-165 112 -165 315t191 406q155 165 325 236q-261 58 -288 58
q-54 0 -119 -156q-48 0 -73 29q88 217 109 260q64 131 115 131q73 0 264.5 -58.5t297.5 -57.5l313 2l-132 -234h-247q30 -88 71 -121q68 -54 221 -54h153v-274z" />
    <glyph glyph-name="uFE9F" unicode="&#x62c;" horiz-adv-x="1044" arabic-form="initial" 
d="M591 -306l-161 -152l-158 158l164 150zM702 181q-62 0 -301.5 -90t-360.5 -90h-70v274h153q267 0 449 48q-99 53 -216 133t-147 80t-109 -137q-14 -2 -37.5 10t-30.5 25q155 336 250 336q62 0 239 -136t228 -168q167 -103 291 -95l-134 -218q-142 28 -204 28z" />
    <glyph glyph-name="uFEA0" unicode="&#x62c;" horiz-adv-x="1310" arabic-form="medial" 
d="M791 -306l-161 -152l-158 158l164 150zM1340 1h-79q-169 0 -269 101q-80 81 -139 260q-320 -226 -381 -260q-181 -101 -366 -101h-136v274h180q162 -1 250 27t284 126q-382 150 -428 150t-72 -26t-67 -106q-16 -7 -36 -7t-36 27q68 177 104 244q67 126 129 126
q40 0 275 -105t347 -105t362 48l-106 -242q-131 -14 -216 -32q60 -125 232 -125h168v-274z" />
    <glyph glyph-name="uFEA2" unicode="&#x62d;" horiz-adv-x="1324" arabic-form="final" 
d="M1353 1h-93q-395 0 -456 443q-200 -51 -324 -230q-95 -137 -95 -239q0 -364 628 -364q88 0 304 13l-94 -126q-83 -28 -260 -52t-286 -24q-217 0 -360 97q-165 112 -165 315t191 406q155 165 325 236q-261 58 -288 58q-54 0 -119 -156q-48 0 -73 29q88 217 109 260
q64 131 115 131q73 0 264.5 -58.5t297.5 -57.5l313 2l-132 -234h-247q30 -88 71 -121q68 -54 221 -54h153v-274z" />
    <glyph glyph-name="uFEA3" unicode="&#x62d;" horiz-adv-x="1044" arabic-form="initial" 
d="M702 181q-62 0 -301.5 -90t-360.5 -90h-70v274h153q267 0 449 48q-99 53 -216 133t-147 80t-109 -137q-14 -2 -37.5 10t-30.5 25q155 336 250 336q62 0 239 -136t228 -168q167 -103 291 -95l-134 -218q-142 28 -204 28z" />
    <glyph glyph-name="uFEA4" unicode="&#x62d;" horiz-adv-x="1310" arabic-form="medial" 
d="M1340 1h-79q-169 0 -269 101q-80 81 -139 260q-320 -226 -381 -260q-181 -101 -366 -101h-136v274h180q162 -1 250 27t284 126q-382 150 -428 150t-72 -26t-67 -106q-16 -7 -36 -7t-36 27q68 177 104 244q67 126 129 126q40 0 275 -105t347 -105t362 48l-106 -242
q-131 -14 -216 -32q60 -125 232 -125h168v-274z" />
    <glyph glyph-name="uFEA6" unicode="&#x62e;" horiz-adv-x="1324" arabic-form="final" 
d="M943 1092l-161 -152l-158 158l164 150zM1353 1h-93q-395 0 -456 443q-200 -51 -324 -230q-95 -137 -95 -239q0 -364 628 -364q88 0 304 13l-94 -126q-83 -28 -260 -52t-286 -24q-217 0 -360 97q-165 112 -165 315t191 406q155 165 325 236q-261 58 -288 58
q-54 0 -119 -156q-48 0 -73 29q88 217 109 260q64 131 115 131q73 0 264.5 -58.5t297.5 -57.5l313 2l-132 -234h-247q30 -88 71 -121q68 -54 221 -54h153v-274z" />
    <glyph glyph-name="uFEA7" unicode="&#x62e;" horiz-adv-x="1044" arabic-form="initial" 
d="M593 1092l-161 -152l-158 158l164 150zM702 181q-62 0 -301.5 -90t-360.5 -90h-70v274h153q267 0 449 48q-99 53 -216 133t-147 80t-109 -137q-14 -2 -37.5 10t-30.5 25q155 336 250 336q62 0 239 -136t228 -168q167 -103 291 -95l-134 -218q-142 28 -204 28z" />
    <glyph glyph-name="uFEA8" unicode="&#x62e;" horiz-adv-x="1310" arabic-form="medial" 
d="M763 1092l-161 -152l-158 158l164 150zM1340 1h-79q-169 0 -269 101q-80 81 -139 260q-320 -226 -381 -260q-181 -101 -366 -101h-136v274h180q162 -1 250 27t284 126q-382 150 -428 150t-72 -26t-67 -106q-16 -7 -36 -7t-36 27q68 177 104 244q67 126 129 126
q40 0 275 -105t347 -105t362 48l-106 -242q-131 -14 -216 -32q60 -125 232 -125h168v-274z" />
    <glyph glyph-name="uFEAA" unicode="&#x62f;" horiz-adv-x="1016" arabic-form="final" 
d="M972 275h74v-274h-88q-137 0 -212 217q-30 -98 -75 -182q-135 -63 -293 -63t-227 69q14 112 49 315h56q-4 -124 158 -119q46 0 164 18t132 48q-77 284 -188 408l156 204q56 -55 99 -228l69 -278q47 -135 126 -135z" />
    <glyph glyph-name="uFEAC" unicode="&#x630;" horiz-adv-x="1016" arabic-form="final" 
d="M823 1212l-161 -152l-158 158l164 150zM972 275h74v-274h-88q-137 0 -212 217q-30 -98 -75 -182q-135 -63 -293 -63t-227 69q14 112 49 315h56q-4 -124 158 -119q46 0 164 18t132 48q-77 284 -188 408l156 204q56 -55 99 -228l69 -278q47 -135 126 -135z" />
    <glyph glyph-name="uFEAE" unicode="&#x631;" horiz-adv-x="916" arabic-form="final" 
d="M945 1h-59q-72 0 -139 50q-67 -369 -340 -618q-40 0 -153 43t-181 98q469 224 537 429q-41 117 -203 232l136 269q127 -143 185 -186t154 -43h63v-274z" />
    <glyph glyph-name="uFEB0" unicode="&#x632;" horiz-adv-x="916" arabic-form="final" 
d="M689 816l-161 -152l-158 158l164 150zM945 1h-59q-72 0 -139 50q-67 -369 -340 -618q-40 0 -153 43t-181 98q469 224 537 429q-41 117 -203 232l136 269q127 -143 185 -186t154 -43h63v-274z" />
    <glyph glyph-name="uFEB2" unicode="&#x633;" horiz-adv-x="2304" arabic-form="final" 
d="M2335 1h-86q-157 0 -203 189q-78 -188 -228 -188t-206 174q-60 -175 -219 -175q-67 0 -115 40q2 -21 2 -63t-14 -142t-35 -140q-87 -102 -257 -184t-382 -82q-259 0 -370 138q-71 89 -71 218q0 186 213 494q6 2 12 2q48 0 60 -40q-112 -180 -112 -304t101 -187
q83 -51 237 -51t307 60q154 60 201 128q-44 230 -184 367l106 263q108 -153 137 -181q67 -65 168 -65t153 99q36 68 36 149h90q0 -121 20 -169q34 -81 134 -81t148 97q35 70 35 152h90q0 -116 20 -165q33 -81 133 -81h79v-272z" />
    <glyph glyph-name="uFEB3" unicode="&#x633;" horiz-adv-x="1322" arabic-form="initial" 
d="M1280 618q38 -94 38 -161q0 -68 -90 -287q-36 -69 -106 -119t-146 -50q-76 -1 -134 61t-72 143q-56 -204 -248 -204q-141 0 -222 203q-103 -203 -248 -203h-82v274h101q101 0 149 99q33 68 33 147h89q0 -247 184 -247q122 0 176 95q37 65 37 152h90q0 -246 161 -246
q119 0 190 61q0 27 -128 212l154 202q36 -38 74 -132z" />
    <glyph glyph-name="uFEB4" unicode="&#x633;" horiz-adv-x="1466" arabic-form="medial" 
d="M1495 1h-86q-84 -1 -149 69t-80 157q-16 -85 -84 -155t-168 -71q-160 0 -204 202q-82 -201 -226 -201q-85 0 -137 60t-71 130q-82 -191 -238 -191h-82v273h99q93 0 141 80t48 166h90q0 -246 159 -246q106 0 155 96q34 66 34 150h90q0 -114 22 -166q34 -81 138 -81t158 97
q39 69 39 152h90q0 -249 173 -249h89v-272z" />
    <glyph glyph-name="uFEB6" unicode="&#x634;" horiz-adv-x="2304" arabic-form="final" 
d="M1714 1076l127 120l126 -125l-132 -118zM1850 847l129 121l124 -127l-130 -117zM1569 849l127 120l126 -127l-132 -117zM2335 1h-86q-157 0 -203 189q-78 -188 -228 -188t-206 174q-60 -175 -219 -175q-67 0 -115 40q2 -21 2 -63t-14 -142t-35 -140q-87 -102 -257 -184
t-382 -82q-259 0 -370 138q-71 89 -71 218q0 186 213 494q6 2 12 2q48 0 60 -40q-112 -180 -112 -304t101 -187q83 -51 237 -51t307 60q154 60 201 128q-44 230 -184 367l106 263q108 -153 137 -181q67 -65 168 -65t153 99q36 68 36 149h90q0 -121 20 -169q34 -81 134 -81
t148 97q35 70 35 152h90q0 -116 20 -165q33 -81 133 -81h79v-272z" />
    <glyph glyph-name="uFEB7" unicode="&#x634;" horiz-adv-x="1322" arabic-form="initial" 
d="M838 1304l127 120l126 -125l-132 -118zM974 1075l129 121l124 -127l-130 -117zM693 1077l127 120l126 -127l-132 -117zM1280 618q38 -94 38 -161q0 -68 -90 -287q-36 -69 -106 -119t-146 -50q-76 -1 -134 61t-72 143q-56 -204 -248 -204q-141 0 -222 203
q-103 -203 -248 -203h-82v274h101q101 0 149 99q33 68 33 147h89q0 -247 184 -247q122 0 176 95q37 65 37 152h90q0 -246 161 -246q119 0 190 61q0 27 -128 212l154 202q36 -38 74 -132z" />
    <glyph glyph-name="uFEB8" unicode="&#x634;" horiz-adv-x="1466" arabic-form="medial" 
d="M844 1076l127 120l126 -125l-132 -118zM980 847l129 121l124 -127l-130 -117zM699 849l127 120l126 -127l-132 -117zM1495 1h-86q-84 -1 -149 69t-80 157q-16 -85 -84 -155t-168 -71q-160 0 -204 202q-82 -201 -226 -201q-85 0 -137 60t-71 130q-82 -191 -238 -191h-82
v273h99q93 0 141 80t48 166h90q0 -246 159 -246q106 0 155 96q34 66 34 150h90q0 -114 22 -166q34 -81 138 -81t158 97q39 69 39 152h90q0 -249 173 -249h89v-272z" />
    <glyph glyph-name="uFEBA" unicode="&#x635;" horiz-adv-x="2384" arabic-form="final" 
d="M1888 522q-80 0 -176 -82q-97 -82 -166 -176q398 0 521 111q0 65 -49.5 106t-129.5 41zM2414 1h-57q-124 0 -217 57q-44 27 -118 101q-244 -158 -562 -158q-131 0 -182 40q2 -19 2 -69t-18 -152t-31 -124q-87 -102 -257 -184t-382 -82q-259 0 -370 138q-71 89 -71 218
q0 186 213 494q6 2 12 2q48 0 60 -40q-112 -180 -112 -304t101 -187q83 -51 237 -51t307 60q154 60 201 128q-44 230 -184 367l106 263q109 -152 148 -186q70 -62 174 -62q159 192 254 275q185 161 346 161q120 0 202 -84t82 -170q0 -17 -46 -73t-70 -81q42 -23 190 -23h42
v-274z" />
    <glyph glyph-name="uFEBB" unicode="&#x635;" horiz-adv-x="1386" arabic-form="initial" 
d="M988 522q-166 0 -356 -258q398 0 521 111q0 67 -48.5 107t-116.5 40zM1384 452q0 -16 -88 -124t-210 -186t-238 -110q-116 -31 -282 -31q-168 0 -239 66q-42 39 -67 125q-77 -191 -229 -191h-61v274h58q95 -1 140 69t45 171h85q0 -241 207 -241q150 186 252 274
q183 158 343 158q120 0 202 -84t82 -170z" />
    <glyph glyph-name="uFEBC" unicode="&#x635;" horiz-adv-x="1470" arabic-form="medial" 
d="M988 522q-166 0 -356 -258q398 0 521 111q0 67 -48.5 107t-116.5 40zM1500 1h-57q-125 0 -217 57q-39 24 -118 101q-244 -158 -562 -158q-148 0 -219 66q-42 39 -67 125q-77 -191 -229 -191h-61v274h58q95 -1 140 69t45 171h85q0 -241 207 -241q150 186 252 274
q183 158 343 158q120 0 202 -84t82 -170q0 -9 -38 -62t-78 -92q42 -23 190 -23h42v-274z" />
    <glyph glyph-name="uFEBE" unicode="&#x636;" horiz-adv-x="2384" arabic-form="final" 
d="M2039 1032l-161 -152l-158 158l164 150zM1888 522q-80 0 -176 -82q-97 -82 -166 -176q398 0 521 111q0 65 -49.5 106t-129.5 41zM2414 1h-57q-124 0 -217 57q-44 27 -118 101q-244 -158 -562 -158q-131 0 -182 40q2 -19 2 -69t-18 -152t-31 -124q-87 -102 -257 -184
t-382 -82q-259 0 -370 138q-71 89 -71 218q0 186 213 494q6 2 12 2q48 0 60 -40q-112 -180 -112 -304t101 -187q83 -51 237 -51t307 60q154 60 201 128q-44 230 -184 367l106 263q109 -152 148 -186q70 -62 174 -62q159 192 254 275q185 161 346 161q120 0 202 -84t82 -170
q0 -17 -46 -73t-70 -81q42 -23 190 -23h42v-274z" />
    <glyph glyph-name="uFEBF" unicode="&#x636;" horiz-adv-x="1386" arabic-form="initial" 
d="M1139 1032l-161 -152l-158 158l164 150zM988 522q-166 0 -356 -258q398 0 521 111q0 67 -48.5 107t-116.5 40zM1384 452q0 -16 -88 -124t-210 -186t-238 -110q-116 -31 -282 -31q-168 0 -239 66q-42 39 -67 125q-77 -191 -229 -191h-61v274h58q95 -1 140 69t45 171h85
q0 -241 207 -241q150 186 252 274q183 158 343 158q120 0 202 -84t82 -170z" />
    <glyph glyph-name="uFEC0" unicode="&#x636;" horiz-adv-x="1470" arabic-form="medial" 
d="M1139 1032l-161 -152l-158 158l164 150zM988 522q-166 0 -356 -258q398 0 521 111q0 67 -48.5 107t-116.5 40zM1500 1h-57q-125 0 -217 57q-39 24 -118 101q-244 -158 -562 -158q-148 0 -219 66q-42 39 -67 125q-77 -191 -229 -191h-61v274h58q95 -1 140 69t45 171h85
q0 -241 207 -241q150 186 252 274q183 158 343 158q120 0 202 -84t82 -170q0 -9 -38 -62t-78 -92q42 -23 190 -23h42v-274z" />
    <glyph glyph-name="uFEC2" unicode="&#x637;" horiz-adv-x="1438" arabic-form="final" 
d="M961 524q-166 0 -356 -258q398 0 521 111q0 67 -48.5 107t-116.5 40zM1468 1h-73q-165 0 -303 159q-246 -159 -609 -159q-176 0 -228 68q-35 46 -105 306h63q36 -68 114 -90q49 -14 151 -14v193q0 478 -110 732l180 160l147 -290h-74v-636q218 280 447 280q115 0 199 -83
t84 -165q0 -49 -106 -155q51 -32 147 -32h76v-274z" />
    <glyph glyph-name="uFEC3" unicode="&#x637;" horiz-adv-x="1044" arabic-form="initial" 
d="M638 524q-80 0 -178 -83t-165 -175q398 0 521 111q0 67 -48.5 107t-129.5 40zM1041 462q0 -40 -98 -156t-264 -196q-223 -109 -506 -109h-203v273h198v190q0 478 -110 732l180 160l147 -290h-74v-636q218 280 447 280q115 0 199 -83t84 -165z" />
    <glyph glyph-name="uFEC4" unicode="&#x637;" horiz-adv-x="1130" arabic-form="medial" 
d="M638 524q-80 0 -178 -83t-165 -175q398 0 521 111q0 67 -48.5 107t-129.5 40zM1158 1h-73q-81 -1 -171 51t-132 108q-246 -159 -609 -159h-203v274h198v189q0 478 -110 732l180 160l147 -290h-74v-636q218 280 447 280q115 0 199 -83t84 -165q0 -49 -106 -155
q51 -32 147 -32h76v-274z" />
    <glyph glyph-name="uFEC6" unicode="&#x638;" horiz-adv-x="1438" arabic-form="final" 
d="M1187 1044l-161 -152l-158 158l164 150zM961 524q-166 0 -356 -258q398 0 521 111q0 67 -48.5 107t-116.5 40zM1468 1h-73q-165 0 -303 159q-246 -159 -609 -159q-176 0 -228 68q-35 46 -105 306h63q36 -68 114 -90q49 -14 151 -14v193q0 478 -110 732l180 160l147 -290
h-74v-636q218 280 447 280q115 0 199 -83t84 -165q0 -49 -106 -155q51 -32 147 -32h76v-274z" />
    <glyph glyph-name="uFEC7" unicode="&#x638;" horiz-adv-x="1044" arabic-form="initial" 
d="M877 1044l-161 -152l-158 158l164 150zM638 524q-80 0 -178 -83t-165 -175q398 0 521 111q0 67 -48.5 107t-129.5 40zM1041 462q0 -40 -98 -156t-264 -196q-223 -109 -506 -109h-203v273h198v190q0 478 -110 732l180 160l147 -290h-74v-636q218 280 447 280
q115 0 199 -83t84 -165z" />
    <glyph glyph-name="uFEC8" unicode="&#x638;" horiz-adv-x="1130" arabic-form="medial" 
d="M877 1044l-161 -152l-158 158l164 150zM638 524q-80 0 -178 -83t-165 -175q398 0 521 111q0 67 -48.5 107t-129.5 40zM1158 1h-73q-81 -1 -171 51t-132 108q-246 -159 -609 -159h-203v274h198v189q0 478 -110 732l180 160l147 -290h-74v-636q218 280 447 280
q115 0 199 -83t84 -165q0 -49 -106 -155q51 -32 147 -32h76v-274z" />
    <glyph glyph-name="uFECA" unicode="&#x639;" horiz-adv-x="1198" arabic-form="final" 
d="M1226 1h-73q-156 0 -254 117q-7 8 -188 243q-320 -201 -320 -418q0 -196 204 -282q145 -61 372 -61q132 0 242 18l-84 -131q-229 -71 -440 -71t-372 104t-161 283q0 308 470 625q-95 90 -223 154q141 207 353 207q265 0 265 -264q-68 -28 -199 -95q153 -155 317 -155h91
v-274z" />
    <glyph glyph-name="uFECB" unicode="&#x639;" horiz-adv-x="920" arabic-form="initial" 
d="M34 1h-64v274h149q27 0 111 9q-120 72 -120 210t142 264t250 126q171 0 280 -186q18 -31 3 -31q-9 0 -47 14t-124 14q-183 0 -292 -83q21 -195 225 -282l377 98l-116 -252q-197 -44 -457 -110t-317 -65z" />
    <glyph glyph-name="uFECC" unicode="&#x639;" horiz-adv-x="820" arabic-form="medial" 
d="M849 1h-82q-86 0 -176 48q-118 63 -163 179q-107 -227 -393 -227h-65v274h115q169 0 238 91q-87 86 -218 153q145 207 353 207q265 0 265 -264q-67 -28 -192 -102q52 -85 229 -85h89v-274z" />
    <glyph glyph-name="uFECE" unicode="&#x63a;" horiz-adv-x="1198" arabic-form="final" 
d="M853 1104l-161 -152l-158 158l164 150zM1226 1h-73q-156 0 -254 117q-7 8 -188 243q-320 -201 -320 -418q0 -196 204 -282q145 -61 372 -61q132 0 242 18l-84 -131q-229 -71 -440 -71t-372 104t-161 283q0 308 470 625q-95 90 -223 154q141 207 353 207q265 0 265 -264
q-68 -28 -199 -95q153 -155 317 -155h91v-274z" />
    <glyph glyph-name="uFECF" unicode="&#x63a;" horiz-adv-x="920" arabic-form="initial" 
d="M633 1194l-161 -152l-158 158l164 150zM34 1h-64v274h149q27 0 111 9q-120 72 -120 210t142 264t250 126q171 0 280 -186q18 -31 3 -31q-9 0 -47 14t-124 14q-183 0 -292 -83q21 -195 225 -282l377 98l-116 -252q-197 -44 -457 -110t-317 -65z" />
    <glyph glyph-name="uFED0" unicode="&#x63a;" horiz-adv-x="820" arabic-form="medial" 
d="M603 1104l-161 -152l-158 158l164 150zM849 1h-82q-86 0 -176 48q-118 63 -163 179q-107 -227 -393 -227h-65v274h115q169 0 238 91q-87 86 -218 153q145 207 353 207q265 0 265 -264q-67 -28 -192 -102q52 -85 229 -85h89v-274z" />
    <glyph glyph-name="uFED2" unicode="&#x641;" horiz-adv-x="1575" arabic-form="final" 
d="M1355 1224l-145 -137l-142 143l147 135zM1310 507q0 39 -35 79t-75 40t-70 -48t-30 -86q0 -70 122 -130q31 14 59.5 60t28.5 85zM1606 1h-68q-155 0 -306 123q-101 -71 -190 -97t-362 -26t-377 42q-152 61 -152 248t123 380q47 4 60 -33q-58 -95 -58 -183
q0 -132 143 -165q69 -16 329 -16t340 24q-122 110 -122 268q0 122 95 238t137 116q57 0 144 -75q114 -98 114 -240q0 -80 -32 -165t-70 -130q54 -35 168 -35h84v-274z" />
    <glyph glyph-name="uFED3" unicode="&#x641;" horiz-adv-x="660" arabic-form="initial" 
d="M509 1236l-145 -137l-142 143l147 135zM336 780q-36 0 -62 -40q-24 -40 -24 -74q0 -58 162 -58q80 0 110 20q-38 80 -94 116t-92 36zM658 541q0 -168 -34 -410q-86 -60 -249 -95t-295 -35h-110v274h147q300 0 417 66v102q-75 -31 -169 -31q-155 0 -240 70q0 221 81 363
q56 97 134 140q173 0 255 -156q63 -120 63 -288z" />
    <glyph glyph-name="uFED4" unicode="&#x641;" horiz-adv-x="735" arabic-form="medial" 
d="M519 1226l-145 -137l-142 143l147 135zM470 507q0 39 -35 79t-75 40t-70 -48t-30 -86q0 -69 122 -130q31 14 59.5 60t28.5 85zM766 1h-68q-157 0 -306 123q-102 -72 -162 -98t-169 -25h-91v274h98q115 0 180 23q-122 110 -122 268q0 122 95 238t137 116q58 0 145 -75
q113 -97 113 -240q0 -81 -32 -165t-70 -130q54 -35 168 -35h84v-274z" />
    <glyph glyph-name="uFED6" unicode="&#x642;" horiz-adv-x="1398" arabic-form="final" 
d="M894 900l-148 -140l-145 147l151 135zM1260 919l-148 -139l-145 146l152 136zM1062 216q62 0 95 26q-52 150 -197 169q-57 -41 -78 -123q49 -72 180 -72zM1428 1h-122q-19 -234 -49 -303q-78 -78 -278 -171q-201 -93 -405 -93t-314 94t-109 280q-1 98 45 249t111 241
q50 -3 62 -32q-73 -153 -73 -287q0 -273 319 -273q132 0 305 56t271 136v126q-80 -22 -161 -22q-172 0 -282 98q0 158 64 308t184 222q258 -34 304 -355h128v-274z" />
    <glyph glyph-name="uFED7" unicode="&#x642;" horiz-adv-x="660" arabic-form="initial" 
d="M630 1237l-138 -138l-140 123l-128 -129l-147 129l138 141l140 -125l128 131zM336 780q-36 0 -62 -40q-24 -40 -24 -74q0 -58 162 -58q80 0 110 20q-38 80 -94 116t-92 36zM658 541q0 -168 -34 -410q-86 -60 -249 -95t-295 -35h-110v274h147q300 0 417 66v102
q-75 -31 -169 -31q-155 0 -240 70q0 221 81 363q56 97 134 140q173 0 255 -156q63 -120 63 -288z" />
    <glyph glyph-name="uFED8" unicode="&#x642;" horiz-adv-x="735" arabic-form="medial" 
d="M630 1237l-138 -138l-140 123l-128 -129l-147 129l138 141l140 -125l128 131zM470 507q0 39 -35 79t-75 40t-70 -48t-30 -86q0 -69 122 -130q31 14 59.5 60t28.5 85zM766 1h-68q-157 0 -306 123q-102 -72 -162 -98t-169 -25h-91v274h98q115 0 180 23q-122 110 -122 268
q0 122 95 238t137 116q58 0 145 -75q113 -97 113 -240q0 -81 -32 -165t-70 -130q54 -35 168 -35h84v-274z" />
    <glyph glyph-name="uFEDE" unicode="&#x644;" horiz-adv-x="1205" arabic-form="final" 
d="M1235 1h-60q-94 0 -139 103q-25 -198 -76 -299q-50 -63 -165 -125q-169 -91 -359 -91q-285 0 -285 278q0 182 119 439q43 -2 70 -26q-44 -95 -44 -230q0 -196 200 -196t398 116v579q0 385 -87 582l186 195q65 -80 65 -363v-475q0 -96 15 -139q26 -74 102 -74h60v-274z
" />
    <glyph glyph-name="uFEDF" unicode="&#x644;" horiz-adv-x="383" arabic-form="initial" 
d="M316 1040v-703q-22 -132 -87 -223q-80 -113 -199 -113h-60v274h66q89 0 131 63v214q1 134 -31 320t-80 298l186 162l144 -292h-70z" />
    <glyph glyph-name="uFEE0" unicode="&#x644;" horiz-adv-x="464" arabic-form="medial" 
d="M494 1h-61q-151 0 -190 179q-44 -179 -213 -179h-60v274h46q99 0 136 41v320q0 318 -79 499l183 192q36 -58 48 -145t13 -313v-295q0 -171 20 -228q25 -71 105 -71h52v-274z" />
    <glyph glyph-name="uFEE2" unicode="&#x645;" horiz-adv-x="1161" arabic-form="final" 
d="M777 -57q96 0 132 135q-173 62 -312 171q0 -95 43 -189q54 -117 137 -117zM1190 1h-55q-70 0 -151 44q4 -24 4 -48q0 -95 -59 -191t-148 -97q-133 0 -217 168q-69 138 -69 285q-102 0 -216 -57q50 -177 50 -409q0 -63 -5 -122l-129 -150q-2 322 -45 586q41 191 93 296
q134 86 261 98l22 122q5 30 13 30t25 -14q118 -96 280 -182t271 -86h75v-273z" />
    <glyph glyph-name="uFEE3" unicode="&#x645;" horiz-adv-x="706" arabic-form="initial" 
d="M554 208q0 189 -202 232q-57 -39 -78 -116q78 -108 278 -154q2 20 2 38zM30 1h-60v274h89q37 0 125 157t148 218q202 0 287 -96t85 -300q-88 -215 -182 -284q-165 0 -329 162q-72 -131 -163 -131z" />
    <glyph glyph-name="uFEE4" unicode="&#x645;" horiz-adv-x="895" arabic-form="medial" 
d="M594 250q-56 110 -218 186q-48 -43 -80 -96q16 -64 76 -122t126 -83q77 38 96 115zM930 1h-60q-65 -1 -106 37t-88 116q-95 -174 -210 -208q-126 24 -198 97q-36 36 -80 123q-95 -165 -157 -165h-61v274h55q51 0 97 58t127 162t185 135q125 -21 204 -126q31 -43 111 -155
q55 -75 109 -75h72v-273z" />
    <glyph glyph-name="uFEE6" unicode="&#x646;" horiz-adv-x="1440" arabic-form="final" 
d="M923 654l-161 -152l-158 158l164 150zM1470 1h-65q-53 0 -127 40q1 -13 1 -29q0 -114 -48 -316q-87 -102 -257 -184t-382 -82q-259 0 -370 138q-71 89 -71 218q0 186 213 494q6 2 12 2q48 0 60 -40q-112 -180 -112 -304t101 -187q83 -51 237 -51t307 60q154 60 201 128
q-44 230 -184 367l106 263q99 -139 156 -191t142 -52h80v-274z" />
    <glyph glyph-name="uFEE7" unicode="&#x646;" horiz-adv-x="450" arabic-form="initial" 
d="M461 1044l-161 -152l-158 158l164 150zM34 1h-64v274h104q217 0 217 65q0 45 -113 198l154 210q114 -152 114 -318q-35 -212 -96 -288q-113 -141 -316 -141z" />
    <glyph glyph-name="uFEE8" unicode="&#x646;" horiz-adv-x="549" arabic-form="medial" 
d="M411 944l-161 -152l-158 158l164 150zM580 1h-71q-81 1 -149 69t-83 151q-13 -77 -87 -149t-150 -71h-70v274h60q102 -1 154 81t52 174h85q1 -107 49 -181t150 -74h60v-274z" />
    <glyph glyph-name="uFEEA" unicode="&#x647;" horiz-adv-x="943" arabic-form="final" 
d="M559 325q47 0 87 5l-44 222q-154 -33 -288 -154q59 -73 245 -73zM973 1h-81q-174 0 -237 290q-32 -118 -90 -198q-315 0 -417 141q41 153 72 240q122 109 350 194q-8 38 -34 108l119 178q53 -76 85 -294t41 -253q38 -132 126 -132h66v-274z" />
    <glyph glyph-name="uFEEB" unicode="&#x647;" horiz-adv-x="882" arabic-form="initial" 
d="M400 566q-101 0 -157 -107q45 -79 151 -111q85 53 85 130q0 38 -22 82q-31 6 -57 6zM581 464q0 -123 -73 -162q151 -57 224 -76q38 31 44 98q-34 51 -198 184q3 -22 3 -44zM881 414q-1 -136 -47 -236t-90 -140q-204 26 -378 102q-224 -139 -335 -139h-61v274h200
q-106 74 -106 151q0 133 269 225l-117 69l24 282q118 -73 238 -160q267 -194 400 -358q3 -35 3 -70z" />
    <glyph glyph-name="uFEEC" unicode="&#x647;" horiz-adv-x="999" arabic-form="medial" 
d="M275 341q0 -31 3 -63q131 0 206 54q-38 169 -146 230q-63 -75 -63 -221zM1030 1h-51q-95 0 -191 -27t-130 -86q54 -116 206 -174l-88 -286q-480 169 -580 591q-62 -18 -144 -18h-82v274h196q-9 51 -9 137t42 233q42 146 119 189q258 -78 288 -651q-88 -92 -256 -129
q22 -61 80 -120t119 -87q13 77 53 169t90 140q122 119 277 119h61v-274z" />
    <glyph glyph-name="uFEEE" unicode="&#x648;" horiz-adv-x="851" arabic-form="final" 
d="M426 410q-28 0 -58 -46t-38 -80q11 -34 70 -50t115 -16t97 21q-28 61 -80 116t-106 55zM881 1h-129q-42 -281 -293 -575q-84 0 -199 37t-188 86q238 97 358 197t202 255q-330 0 -431 94q0 225 97 381q65 104 149 150q99 0 189 -87t116 -264h129v-274z" />
    <glyph glyph-name="uFEF0" unicode="&#x649;" horiz-adv-x="1375" arabic-form="final" 
d="M1406 275v-274h-59q-44 0 -130 25.5t-131 25.5q-78 0 -108 -56q32 -24 126 -53q188 -58 188 -108t-31 -143t-62 -140q-411 -129 -676 -129q-111 0 -216 52q-156 77 -156 234q0 228 180 490q42 0 64 -32q-29 -52 -55 -136t-26 -140q0 -202 333 -202q278 0 527 39
q-53 40 -174 78t-140 80q37 175 82 260q77 146 208 146l192 -17h64z" />
    <glyph glyph-name=".notdef" horiz-adv-x="1024" 
d="M256 128h512v1132h-512v-1132zM128 0v1388h768v-1388h-768z" />
    <glyph glyph-name=".null" 
 />
    <glyph glyph-name="nonmarkingreturn" horiz-adv-x="465" 
 />
    <glyph glyph-name="space" unicode=" " horiz-adv-x="465" 
 />
    <glyph glyph-name="exclam" unicode="!" horiz-adv-x="441" 
d="M440 21q0 -59 -42.5 -101.5t-101.5 -42.5t-101.5 42.5t-42.5 101.5t42.5 101.5t101.5 42.5t101.5 -42.5t42.5 -101.5zM436 1282q-88 -737 -88 -962l-128 -38q-16 82 -42 384t-26 506z" />
    <glyph glyph-name="percent" unicode="%" horiz-adv-x="1110" 
d="M1030 -3q-122 -132 -204 -268q-117 110 -270 196q132 148 204 280q116 -122 270 -208zM1032 1345l-849 -1684h-104l849 1684h104zM550 1062q-118 -127 -204 -268q-117 110 -270 196q129 144 204 280q119 -124 270 -208z" />
    <glyph glyph-name="parenleft" unicode="(" horiz-adv-x="592" 
d="M150 529q0 531 306 976h133q-211 -366 -211 -976q0 -293 68 -554t142 -411h-133q-305 508 -305 965z" />
    <glyph glyph-name="parenright" unicode=")" horiz-adv-x="592" 
d="M590 541q0 -530 -306 -976h-133q211 367 211 976q0 295 -68 553t-142 412h133q305 -508 305 -965z" />
    <glyph glyph-name="asterisk" unicode="*" horiz-adv-x="1048" 
d="M344 93q-34 -1 -62 27t-28 62t23 57q67 68 211 103q20 4 16 -16q-33 -140 -101 -208q-25 -25 -59 -25zM235 349q-84 0 -84 88q0 35 23 61t58 26q93 0 222 -77q18 -11 0 -22q-127 -76 -219 -76zM685 77q0 -88 -88 -88q-35 0 -61 23t-26 58q0 93 77 222q11 18 22 0
q76 -127 76 -215zM941 181q0 -35 -27 -62q-28 -27 -62 -27t-57 23q-65 66 -103 211q-2 10 2 14t14 2q143 -36 208 -101q25 -25 25 -60zM699 435q0 -41 -30 -71t-71 -31q-40 1 -70 31t-30 72t29 70t71 28t71 -29q30 -29 30 -70zM255 691q-1 35 27 62t62 27t57 -23
q67 -67 103 -211q6 -20 -16 -16q-141 33 -208 101q-25 25 -25 60zM1045 435q0 -35 -23 -61t-58 -26q-92 0 -222 77q-18 11 0 22q127 76 219 76q84 0 84 -88zM686 802q0 -92 -77 -222q-11 -18 -22 0q-76 127 -76 215t88 88q35 0 61 -23t26 -58zM852 779q34 1 62 -27t28 -62
t-23 -57q-65 -65 -211 -103q-10 -2 -14 2t-2 14q36 143 101 208q25 25 59 25z" />
    <glyph glyph-name="plus" unicode="+" horiz-adv-x="966" 
d="M893 350h-368v-364h-94v364h-364v95h366v367h93v-367h367v-95z" />
    <glyph glyph-name="comma" unicode="," horiz-adv-x="474" 
d="M157 144q-1 62 47 102t121 40t113 -68t39 -174q1 -106 -79 -218t-131 -139l-83 46q175 140 175 276q-30 -12 -61 -12q-64 0 -102.5 42.5t-38.5 104.5z" />
    <glyph glyph-name="hyphen" unicode="-" horiz-adv-x="966" 
d="M893 350h-826v95h826v-95z" />
    <glyph glyph-name="period" unicode="." horiz-adv-x="456" 
d="M453 152q0 -62 -43.5 -105.5t-106.5 -43.5t-106.5 43.5t-43.5 106.5t43.5 106.5t105.5 43.5t106.5 -44.5t44.5 -106.5z" />
    <glyph glyph-name="slash" unicode="/" horiz-adv-x="615" 
d="M538 1338l-363 -1518h-92l363 1518h92z" />
    <glyph glyph-name="zero" unicode="0" horiz-adv-x="1090" 
d="M836 551q-112 -89 -174 -163t-99 -186q-152 194 -353 275q192 152 281 341q121 -159 345 -267z" />
    <glyph glyph-name="zero" unicode="&#x6f0;" horiz-adv-x="1090" 
d="M836 551q-112 -89 -174 -163t-99 -186q-152 194 -353 275q192 152 281 341q121 -159 345 -267z" />
    <glyph glyph-name="zero" unicode="&#x660;" horiz-adv-x="1090" 
d="M836 551q-112 -89 -174 -163t-99 -186q-152 194 -353 275q192 152 281 341q121 -159 345 -267z" />
    <glyph glyph-name="one" unicode="1" horiz-adv-x="1090" 
d="M769 385q0 -129 -24 -335l-159 -165v283q0 460 -349 874l201 279q331 -428 331 -936z" />
    <glyph glyph-name="one" unicode="&#x6f1;" horiz-adv-x="1090" 
d="M769 385q0 -129 -24 -335l-159 -165v283q0 460 -349 874l201 279q331 -428 331 -936z" />
    <glyph glyph-name="one" unicode="&#x661;" horiz-adv-x="1090" 
d="M769 385q0 -129 -24 -335l-159 -165v283q0 460 -349 874l201 279q331 -428 331 -936z" />
    <glyph glyph-name="two" unicode="2" horiz-adv-x="1090" 
d="M658 830q-51 0 -109 17q66 -184 66 -412t-25 -407l-148 -147v280q0 478 -346 880l195 285q101 -115 156 -155q93 -68 201 -68q155 0 254 224l98 -114q-107 -383 -342 -383z" />
    <glyph glyph-name="two" unicode="&#x6f2;" horiz-adv-x="1090" 
d="M658 830q-51 0 -109 17q66 -184 66 -412t-25 -407l-148 -147v280q0 478 -346 880l195 285q101 -115 156 -155q93 -68 201 -68q155 0 254 224l98 -114q-107 -383 -342 -383z" />
    <glyph glyph-name="two" unicode="&#x662;" horiz-adv-x="1090" 
d="M658 830q-51 0 -109 17q66 -184 66 -412t-25 -407l-148 -147v280q0 478 -346 880l195 285q101 -115 156 -155q93 -68 201 -68q155 0 254 224l98 -114q-107 -383 -342 -383z" />
    <glyph glyph-name="three" unicode="3" horiz-adv-x="1090" 
d="M845 855q-109 0 -152 131q-30 -158 -164 -158q-33 0 -72 10q93 -217 93 -478q0 -150 -19 -314l-158 -164v290q0 473 -348 867l192 282l116 -149q73 -78 142 -78q161 0 161 234h91q0 -92 12 -130q26 -82 109 -82q108 0 132 227l76 -60q0 -428 -211 -428z" />
    <glyph glyph-name="three" unicode="&#x6f3;" horiz-adv-x="1090" 
d="M845 855q-109 0 -152 131q-30 -158 -164 -158q-33 0 -72 10q93 -217 93 -478q0 -150 -19 -314l-158 -164v290q0 473 -348 867l192 282l116 -149q73 -78 142 -78q161 0 161 234h91q0 -92 12 -130q26 -82 109 -82q108 0 132 227l76 -60q0 -428 -211 -428z" />
    <glyph glyph-name="three" unicode="&#x663;" horiz-adv-x="1090" 
d="M845 855q-109 0 -152 131q-30 -158 -164 -158q-33 0 -72 10q93 -217 93 -478q0 -150 -19 -314l-158 -164v290q0 473 -348 867l192 282l116 -149q73 -78 142 -78q161 0 161 234h91q0 -92 12 -130q26 -82 109 -82q108 0 132 227l76 -60q0 -428 -211 -428z" />
    <glyph glyph-name="four" unicode="4" horiz-adv-x="1090" 
d="M784 1324q52 0 115 -8l-117 -255q-98 20 -158 20t-126 -57q-34 -29 -103 -116q108 -76 378 -161l-339 -420q267 -123 453 -123q36 0 72 4l-69 -282q-332 0 -747 266l321 423q-193 67 -300 170q222 335 294 407q133 132 326 132z" />
    <glyph glyph-name="four" unicode="&#x6f4;" horiz-adv-x="1090" 
d="M784 1324q52 0 115 -8l-117 -255q-98 20 -158 20t-126 -57q-34 -29 -103 -116q108 -76 378 -161l-339 -420q267 -123 453 -123q36 0 72 4l-69 -282q-332 0 -747 266l321 423q-193 67 -300 170q222 335 294 407q133 132 326 132z" />
    <glyph glyph-name="four" unicode="&#x664;" horiz-adv-x="1090" 
d="M784 1324q52 0 115 -8l-117 -255q-98 20 -158 20t-126 -57q-34 -29 -103 -116q108 -76 378 -161l-339 -420q267 -123 453 -123q36 0 72 4l-69 -282q-332 0 -747 266l321 423q-193 67 -300 170q222 335 294 407q133 132 326 132z" />
    <glyph glyph-name="five" unicode="5" horiz-adv-x="1090" 
d="M493 378q172 0 273 123q-73 252 -315 294q-126 -114 -162 -330q73 -87 204 -87zM904 621q0 -237 -87 -369q-51 -56 -148 -104t-203 -49q-215 0 -297 177q0 485 327 822q168 -36 288 -172t120 -305z" />
    <glyph glyph-name="five" unicode="&#x6f5;" horiz-adv-x="1090" 
d="M493 378q172 0 273 123q-73 252 -315 294q-126 -114 -162 -330q73 -87 204 -87zM904 621q0 -237 -87 -369q-51 -56 -148 -104t-203 -49q-215 0 -297 177q0 485 327 822q168 -36 288 -172t120 -305z" />
    <glyph glyph-name="five" unicode="&#x665;" horiz-adv-x="1090" 
d="M493 378q172 0 273 123q-73 252 -315 294q-126 -114 -162 -330q73 -87 204 -87zM904 621q0 -237 -87 -369q-51 -56 -148 -104t-203 -49q-215 0 -297 177q0 485 327 822q168 -36 288 -172t120 -305z" />
    <glyph glyph-name="six" unicode="6" horiz-adv-x="1090" 
d="M654 449q0 73 5 220t5 220q-102 -11 -183 -11q-266 0 -350 131q-51 80 -59 314h93q22 -73 79 -102t201 -29t397 22q-21 -285 -21 -495t26 -284q43 -122 181 -165l-72 -369q-181 73 -248 214q-54 114 -54 334z" />
    <glyph glyph-name="six" unicode="&#x6f6;" horiz-adv-x="1090" 
d="M654 449q0 73 5 220t5 220q-102 -11 -183 -11q-266 0 -350 131q-51 80 -59 314h93q22 -73 79 -102t201 -29t397 22q-21 -285 -21 -495t26 -284q43 -122 181 -165l-72 -369q-181 73 -248 214q-54 114 -54 334z" />
    <glyph glyph-name="six" unicode="&#x666;" horiz-adv-x="1090" 
d="M654 449q0 73 5 220t5 220q-102 -11 -183 -11q-266 0 -350 131q-51 80 -59 314h93q22 -73 79 -102t201 -29t397 22q-21 -285 -21 -495t26 -284q43 -122 181 -165l-72 -369q-181 73 -248 214q-54 114 -54 334z" />
    <glyph glyph-name="seven" unicode="7" horiz-adv-x="1090" 
d="M1055 916q-180 -151 -311 -503q-105 -282 -129 -515h-111q-18 209 -132 525t-336 533l147 372q142 -160 240 -430t138 -518q41 266 126 496q112 303 273 446z" />
    <glyph glyph-name="seven" unicode="&#x6f7;" horiz-adv-x="1090" 
d="M1055 916q-180 -151 -311 -503q-105 -282 -129 -515h-111q-18 209 -132 525t-336 533l147 372q142 -160 240 -430t138 -518q41 266 126 496q112 303 273 446z" />
    <glyph glyph-name="seven" unicode="&#x667;" horiz-adv-x="1090" 
d="M1055 916q-180 -151 -311 -503q-105 -282 -129 -515h-111q-18 209 -132 525t-336 533l147 372q142 -160 240 -430t138 -518q41 266 126 496q112 303 273 446z" />
    <glyph glyph-name="eight" unicode="8" horiz-adv-x="1090" 
d="M35 298q182 153 311 503q105 285 129 515h111q18 -209 132 -525t336 -533l-147 -372q-142 160 -240 430t-138 518q-41 -267 -126 -496q-112 -302 -273 -446z" />
    <glyph glyph-name="eight" unicode="&#x6f8;" horiz-adv-x="1090" 
d="M35 298q182 153 311 503q105 285 129 515h111q18 -209 132 -525t336 -533l-147 -372q-142 160 -240 430t-138 518q-41 -267 -126 -496q-112 -302 -273 -446z" />
    <glyph glyph-name="eight" unicode="&#x668;" horiz-adv-x="1090" 
d="M35 298q182 153 311 503q105 285 129 515h111q18 -209 132 -525t336 -533l-147 -372q-142 160 -240 430t-138 518q-41 -267 -126 -496q-112 -302 -273 -446z" />
    <glyph glyph-name="nine" unicode="9" horiz-adv-x="1090" 
d="M333 1082q-61 0 -107 -112q67 -105 189 -105q90 0 131 31q-16 79 -75 132.5t-138 53.5zM398 595q-102 0 -197 64.5t-121 144.5q20 157 72 291q93 240 248 240q186 0 248 -128q36 -76 72 -386t84 -408t198 -169l-80 -346q-181 55 -246 206q-51 119 -92 544
q-84 -53 -186 -53z" />
    <glyph glyph-name="nine" unicode="&#x6f9;" horiz-adv-x="1090" 
d="M333 1082q-61 0 -107 -112q67 -105 189 -105q90 0 131 31q-16 79 -75 132.5t-138 53.5zM398 595q-102 0 -197 64.5t-121 144.5q20 157 72 291q93 240 248 240q186 0 248 -128q36 -76 72 -386t84 -408t198 -169l-80 -346q-181 55 -246 206q-51 119 -92 544
q-84 -53 -186 -53z" />
    <glyph glyph-name="nine" unicode="&#x669;" horiz-adv-x="1090" 
d="M333 1082q-61 0 -107 -112q67 -105 189 -105q90 0 131 31q-16 79 -75 132.5t-138 53.5zM398 595q-102 0 -197 64.5t-121 144.5q20 157 72 291q93 240 248 240q186 0 248 -128q36 -76 72 -386t84 -408t198 -169l-80 -346q-181 55 -246 206q-51 119 -92 544
q-84 -53 -186 -53z" />
    <glyph glyph-name="colon" unicode=":" horiz-adv-x="456" 
d="M453 732q0 -62 -43.5 -105.5t-106.5 -43.5t-106.5 43.5t-43.5 106.5t43.5 106.5t105.5 43.5t106.5 -44.5t44.5 -106.5zM453 152q0 -62 -43.5 -105.5t-106.5 -43.5t-106.5 43.5t-43.5 106.5t43.5 106.5t105.5 43.5t106.5 -44.5t44.5 -106.5z" />
    <glyph glyph-name="equal" unicode="=" horiz-adv-x="966" 
d="M892 200h-826v95h826v-95zM892 500h-826v95h826v-95z" />
    <glyph glyph-name="bracketleft" unicode="[" horiz-adv-x="604" 
d="M610 -424h-387v1893h387v-165h-216v-1562h216v-166z" />
    <glyph glyph-name="bracketright" unicode="]" horiz-adv-x="604" 
d="M218 1468h387v-1893h-387v165h216v1562h-216v166z" />
    <glyph glyph-name="braceleft" unicode="{" horiz-adv-x="981" 
d="M480 66q0 62 22 162t23 127q1 97 -69 161t-169 75v38q239 52 239 219q0 48 -22 148t-21 162q1 151 99 255t250 129v-40q-94 -14 -158 -76t-64 -152q0 -46 22 -160t21 -165q0 -224 -286 -336q283 -116 283 -350q0 -49 -22 -155t-22 -159q0 -180 226 -233v-36
q-152 28 -252 132t-100 254z" />
    <glyph glyph-name="braceright" unicode="}" horiz-adv-x="981" 
d="M456 373q0 -53 22 -153t21 -156q-1 -151 -99 -255t-250 -129v40q94 14 158 75t63 153q0 48 -21 163t-21 162q0 223 285 336q-282 116 -282 349q0 55 22 161t22 154q0 180 -226 233v36q152 -28 252 -132t100 -254q0 -57 -22 -157t-23 -133q1 -96 69 -158t169 -78v-37
q-239 -52 -239 -220z" />
    <glyph glyph-name="guillemotleft" unicode="&#xab;" horiz-adv-x="813" 
d="M471 422q0 72 75 202t146 220h118q-209 -312 -209 -431t209 -417h-118q-83 106 -152 230t-69 196zM151 422q0 72 75 202t146 220h118q-209 -312 -209 -431t209 -417h-118q-82 106 -152 230t-69 196z" />
    <glyph glyph-name="periodcentered" unicode="&#xb7;" horiz-adv-x="405" 
d="M326 768q0 -50 -35 -85t-85 -35t-85.5 35.5t-35.5 84.5t34.5 85t84.5 36t86 -35.5t36 -85.5z" />
    <glyph glyph-name="periodcentered" unicode="&#x2219;" horiz-adv-x="405" 
d="M326 768q0 -50 -35 -85t-85 -35t-85.5 35.5t-35.5 84.5t34.5 85t84.5 36t86 -35.5t36 -85.5z" />
    <glyph glyph-name="periodcentered" unicode="&#x2d9;" horiz-adv-x="405" 
d="M326 768q0 -50 -35 -85t-85 -35t-85.5 35.5t-35.5 84.5t34.5 85t84.5 36t86 -35.5t36 -85.5z" />
    <glyph glyph-name="guillemotright" unicode="&#xbb;" horiz-adv-x="813" 
d="M489 418q0 -72 -75 -202t-146 -220h-118q209 310 209 432t-209 416h118q82 -106 152 -230t69 -196zM809 420q0 -72 -76 -206t-145 -218h-118q209 314 209 432t-209 416h118q221 -286 221 -424z" />
    <glyph glyph-name="multiply" unicode="&#xd7;" horiz-adv-x="946" 
d="M802 219l-58 -57l-277 275l-277 -275l-59 57l275 278l-275 278l62 56l274 -276l277 276l58 -56l-279 -278z" />
    <glyph glyph-name="divide" unicode="&#xf7;" horiz-adv-x="968" 
d="M456 -50q-62 0 -105 43t-43 105t43 105t105 43t105 -43t43 -105t-43 -105t-105 -43zM456 550q-62 0 -105 43t-43 105t43 105t105 43t105 -43t43 -105t-43 -105t-105 -43zM892 350h-826v95h826v-95z" />
    <glyph glyph-name="u060C" unicode="&#x60c;" horiz-adv-x="474" 
d="M471 144q0 -62 -47 -103q-46 -40 -120 -40t-114 68t-39 174q-1 107 79 219t131 138l83 -46q-175 -140 -175 -276q30 12 61 12q64 0 102.5 -42t38.5 -104z" />
    <glyph glyph-name="u061B" unicode="&#x61b;" horiz-adv-x="474" 
d="M471 654q0 -62 -47 -103q-46 -40 -120 -40t-114 68t-39 174q0 106 80 219t130 138l83 -46q-175 -140 -175 -276q31 11 61 11q64 0 102.5 -41.5t38.5 -103.5zM463 153q0 -62 -44 -106t-106 -44t-106 44.5t-44 106.5t43.5 105.5t105.5 43.5t106.5 -44t44.5 -106z" />
    <glyph glyph-name="u061F" unicode="&#x61f;" horiz-adv-x="765" 
d="M692 0q0 -60 -41 -100.5t-101 -40.5t-102 41.5t-42 100.5t42 101t101 42t101 -42t42 -102zM526 1015q-181 0 -181 -120q0 -48 90 -126q47 -39 166 -145q89 -81 89 -159q0 -108 -69 -180l-156 81q60 49 60 99t-90 121q-135 107 -168 143q-90 100 -90 227q0 128 102 214
q103 86 245 86t246 -66l-92 -203q-70 28 -152 28z" />
    <glyph glyph-name="u0621" unicode="&#x621;" horiz-adv-x="734" 
d="M733 310q0 -24 -31 -134q-231 -38 -550 -188v122q31 19 146 82q-114 59 -114 160q0 70 115 186t211 116q69 0 179 -72l-109 -138q-84 50 -126 50q-81 0 -146 -80q58 -131 191 -131q21 -1 95 21t138 36q1 -6 1 -30z" />
    <glyph glyph-name="u0640" unicode="&#x640;" horiz-adv-x="829" 
d="M860 1h-890v274h890v-274z" />
    <glyph glyph-name="u064B" unicode="&#x64b;" 
d="M458 1489l-312 -125v80l312 127v-82zM458 1654l-312 -125v79l312 128v-82z" />
    <glyph glyph-name="u064C" unicode="&#x64c;" 
d="M371 1718q1 42 -33 43q-34 0 -56 -65q17 -16 75 -55q14 35 14 77zM456 1579q0 -18 -8 -41q-21 7 -63 20q-38 -141 -170 -193q-1 9 1 67t-11 80q-20 -13 -65 -40l-6 88q34 18 85 44q29 -34 29 -132q49 15 93 103q-113 60 -113 85q0 52 39 106t89 55q63 0 63 -98
q0 -41 -12 -98q8 -2 47 -17q2 -11 2 -29z" />
    <glyph glyph-name="u064D" unicode="&#x64d;" 
d="M452 -918l-313 -125v79l313 128v-82zM452 -753l-313 -125v79l313 128v-82z" />
    <glyph glyph-name="u064E" unicode="&#x64e;" 
d="M458 1524l-312 -125v79l312 128v-82z" />
    <glyph glyph-name="u064F" unicode="&#x64f;" 
d="M365 1670q0 24 -13 43t-31 19q-37 0 -66 -71q43 -35 95 -55q15 40 15 64zM201 1620q-1 50 47 114t108 64t61 -101q0 -41 -23 -102q31 -13 47 -16v-74q-28 10 -75 25q-49 -59 -97 -97q-48 -37 -138 -66v82q120 30 179 100q-109 58 -109 71z" />
    <glyph glyph-name="u0650" unicode="&#x650;" 
d="M452 -766l-313 -125v79l313 128v-82z" />
    <glyph glyph-name="u0651" unicode="&#x651;" 
d="M461 1540q0 -128 -78 -128q-49 0 -62 58q-21 -101 -91 -101q-56 0 -72 62q-7 27 -5 108q9 3 48 20q5 -112 34 -112q36 0 46 56q2 38 5 76l50 14q6 -101 40 -101q27 0 31 45q-1 11 -2 85l47 15q9 -57 9 -97z" />
    <glyph glyph-name="u0652" unicode="&#x652;" 
d="M231 1503q0 -52 73 -52q32 0 70 27q-11 72 -98 110q-45 -57 -45 -85zM424 1494q0 -121 -142 -121q-42 -1 -74 25t-32 66q0 85 101 211q147 -60 147 -181z" />
    <glyph glyph-name="zeronojoin" unicode="&#x200c;" horiz-adv-x="34" 
 />
    <glyph glyph-name="zerojoin" unicode="&#x200d;" horiz-adv-x="34" 
 />
    <glyph glyph-name="lefttoright" unicode="&#x200e;" horiz-adv-x="34" 
d="M34 1198v-1198h-34v1230h163l-62 62l26 24l101 -103l-101 -103l-26 21l67 67h-134z" />
    <glyph glyph-name="righttoleft" unicode="&#x200f;" horiz-adv-x="34" 
d="M34 0h-34v1198h-133l64 -67l-21 -21l-106 103l106 103l21 -24l-62 -62h165v-1230z" />
    <glyph glyph-name="quoteleft" unicode="&#x2018;" horiz-adv-x="491" 
d="M237 1148q0 -55 32 -98q39 47 90 47q102 0 102 -100q1 -59 -45 -91t-118 -31q-72 0 -122.5 50.5t-50.5 132.5q1 142 103 276t239 207v-55q-89 -58 -159 -152t-71 -186z" />
    <glyph glyph-name="quoteright" unicode="&#x2019;" horiz-adv-x="491" 
d="M444 1353q0 -143 -99 -271t-240 -210v56q228 162 228 338q0 62 -33 101q-32 -49 -84 -49t-80.5 28t-28.5 78t46 82q45 33 119 33t123 -50t49 -136z" />
    <glyph glyph-name="quotedblleft" unicode="&#x201c;" horiz-adv-x="650" 
d="M291 913q0 -45 -31.5 -78t-79.5 -33t-80 40q-30 40 -30 94q0 201 203 359q1 -83 3 -108t26 -41q-13 -6 -41 -26q-52 -51 -52 -95q82 -22 82 -112zM561 913q0 -45 -31.5 -78t-79.5 -33t-80 40q-30 40 -30 94q0 201 203 359q1 -83 3 -108t26 -41q-13 -6 -41 -26
q-52 -51 -52 -95q82 -22 82 -112z" />
    <glyph glyph-name="quotedblright" unicode="&#x201d;" horiz-adv-x="650" 
d="M310 1151q0 -201 -203 -359q-1 83 -3 108t-26 41q13 6 41 26q52 51 52 95q-82 22 -82 112q0 46 31 78.5t81 32.5q49 0 79 -39t30 -95zM580 1151q0 -201 -203 -359q-1 83 -3 108t-26 41q13 6 41 26q52 51 52 95q-82 22 -82 112q0 46 31 78.5t81 32.5q49 0 79 -39t30 -95z
" />
    <glyph glyph-name="guilsinglleft" unicode="&#x2039;" horiz-adv-x="512" 
d="M457 966l-228 -382l222 -380v-75l-383 455l389 457v-75z" />
    <glyph glyph-name="guilsinglright" unicode="&#x203a;" horiz-adv-x="512" 
d="M457 586l-393 -457v75l231 382l-222 381v77z" />
    <glyph glyph-name="uE820" unicode="&#xe820;" 
d="M467 1096l-312 -125v79l312 128v-82z" />
    <glyph glyph-name="uE821" unicode="&#xe821;" 
d="M382 1282q0 24 -13 42q-13 19 -31 19q-37 0 -66 -71q43 -35 95 -55q15 41 15 65zM218 1231q0 49 48 113t108 65q60 0 60 -101q0 -41 -23 -102q31 -13 47 -16v-74q-28 10 -75 25q-49 -59 -97 -97q-48 -37 -138 -66v82q120 30 179 100q-109 58 -109 71z" />
    <glyph glyph-name="uE822" unicode="&#xe822;" 
d="M205 1097q0 -52 73 -52q32 0 70 27q-11 72 -98 110q-45 -57 -45 -85zM398 1088q0 -121 -142 -121q-42 -1 -74 25t-32 66q0 85 101 211q147 -60 147 -181z" />
    <glyph glyph-name="uE823" unicode="&#xe823;" 
d="M449 1078l-312 -125v80l312 127v-82zM449 1243l-312 -125v79l312 128v-82z" />
    <glyph glyph-name="uE824" unicode="&#xe824;" 
d="M423 1324q1 42 -33 43q-34 0 -56 -65q17 -16 75 -55q14 35 14 77zM508 1185q0 -18 -8 -41q-21 7 -63 20q-38 -141 -170 -193q-1 9 1 67t-11 80q-20 -13 -65 -40l-6 88q34 18 85 44q29 -34 29 -132q49 15 93 103q-113 60 -113 85q0 52 39 106t89 55q63 0 63 -98
q0 -41 -12 -98q8 -2 47 -17q2 -11 2 -29z" />
    <glyph glyph-name="uE825" unicode="&#xe825;" 
d="M461 1116q0 -128 -78 -128q-49 0 -62 58q-21 -101 -91 -101q-56 0 -72 62q-7 27 -5 108q9 3 48 20q5 -112 34 -112q36 0 46 56q2 38 5 76l50 14q6 -101 40 -101q27 0 31 45q-1 11 -2 85l47 15q9 -57 9 -97z" />
    <glyph glyph-name="uE826" unicode="&#xe826;" 
d="M360 -407l-313 -125v79l313 128v-82z" />
    <glyph glyph-name="uE827" unicode="&#xe827;" 
d="M330 -616l-313 -125v79l313 128v-82zM330 -451l-313 -125v79l313 128v-82z" />
    <glyph glyph-name="uE828" unicode="&#xe828;" 
d="M412 1097q0 -128 -78 -128q-49 0 -62 58q-21 -101 -91 -101q-56 0 -72 62q-7 27 -5 108q9 3 48 20q5 -112 34 -112q36 0 46 56q2 38 5 76l50 14q6 -101 40 -101q27 0 31 45q-1 11 -2 85l47 15q9 -57 9 -97zM409 1293l-312 -125v79l312 128v-82z" />
    <glyph glyph-name="uE829" unicode="&#xe829;" 
d="M404 1100q0 -128 -78 -128q-49 0 -62 58q-21 -101 -91 -101q-56 0 -72 62q-7 27 -5 108q9 3 48 20q5 -112 34 -112q36 0 46 56q2 38 5 76l50 14q6 -101 40 -101q27 0 31 45q-1 11 -2 85l47 15q9 -57 9 -97zM332 1476q0 24 -13 42q-13 19 -31 19q-37 0 -66 -71
q43 -35 95 -55q15 41 15 65zM168 1425q0 49 48 113t108 65q60 0 60 -101q0 -41 -23 -102q31 -13 47 -16v-74q-28 10 -75 25q-49 -59 -97 -97q-48 -37 -138 -66v82q120 30 179 100q-109 58 -109 71z" />
    <glyph glyph-name="uE82A" unicode="&#xe82a;" 
d="M408 1069q0 -128 -78 -128q-49 0 -62 58q-21 -101 -91 -101q-56 0 -72 62q-7 27 -5 108q9 3 48 20q5 -112 34 -112q36 0 46 56q2 38 5 76l50 14q6 -101 40 -101q27 0 31 45q-1 11 -2 85l47 15q9 -57 9 -97zM403 1253l-312 -125v80l312 127v-82zM403 1418l-312 -125v79
l312 128v-82z" />
    <glyph glyph-name="uE82B" unicode="&#xe82b;" 
d="M415 1070q0 -128 -78 -128q-49 0 -62 58q-21 -101 -91 -101q-56 0 -72 62q-7 27 -5 108q9 3 48 20q5 -112 34 -112q36 0 46 56q2 38 5 76l50 14q6 -101 40 -101q27 0 31 45q-1 11 -2 85l47 15q9 -57 9 -97zM329 1500q1 42 -33 42t-56 -65q17 -16 75 -55q14 36 14 78z
M414 1360q0 -18 -8 -41q-21 7 -63 20q-38 -141 -170 -193q-1 8 1 66t-11 81q-20 -13 -65 -40l-6 88q34 18 85 44q29 -34 29 -132q49 15 93 103q-113 60 -113 85q0 53 39 107t89 54q63 0 63 -98q0 -41 -12 -98q8 -2 47 -17q2 -11 2 -29z" />
    <glyph glyph-name="uE82C" unicode="&#xe82c;" 
d="M402 1270q0 -128 -78 -128q-49 0 -62 58q-21 -101 -91 -101q-56 0 -72 62q-7 27 -5 108q9 3 48 20q5 -112 34 -112q36 0 46 56q2 38 5 76l50 14q6 -101 40 -101q27 0 31 45q-1 11 -2 85l47 15q9 -57 9 -97zM414 957l-313 -125v79l313 128v-82z" />
    <glyph glyph-name="uE82D" unicode="&#xe82d;" 
d="M402 1414q0 -128 -78 -128q-49 0 -62 58q-21 -101 -91 -101q-56 0 -72 62q-7 27 -5 108q9 3 48 20q5 -112 34 -112q36 0 46 56q2 38 5 76l50 14q6 -101 40 -101q27 0 31 45q-1 11 -2 85l47 15q9 -57 9 -97zM407 961l-313 -125v79l313 128v-82zM407 1126l-313 -125v79
l313 128v-82z" />
  </font>
</defs>
</svg>
